G75*
%MOIN*%
%OFA0B0*%
%FSLAX25Y25*%
%IPPOS*%
%LPD*%
%AMOC8*
5,1,8,0,0,1.08239X$1,22.5*
%
%ADD10C,0.00000*%
%ADD11C,0.00300*%
%ADD12C,0.00800*%
%ADD13C,0.00500*%
%ADD14C,0.00400*%
%ADD15R,0.03000X0.01500*%
%ADD16C,0.00100*%
D10*
X0010658Y0015028D02*
X0010619Y0152587D01*
X0147942Y0152587D01*
X0147942Y0014871D01*
X0010658Y0015028D01*
D11*
X0114196Y0042915D02*
X0114196Y0045817D01*
X0115647Y0045817D01*
X0116131Y0045333D01*
X0116131Y0044366D01*
X0115647Y0043882D01*
X0114196Y0043882D01*
X0117143Y0043882D02*
X0118594Y0043882D01*
X0119078Y0044366D01*
X0119078Y0045333D01*
X0118594Y0045817D01*
X0117143Y0045817D01*
X0117143Y0042915D01*
X0118110Y0043882D02*
X0119078Y0042915D01*
X0120089Y0043398D02*
X0120573Y0042915D01*
X0121541Y0042915D01*
X0122024Y0043398D01*
X0122024Y0045333D01*
X0121541Y0045817D01*
X0120573Y0045817D01*
X0120089Y0045333D01*
X0120089Y0043398D01*
X0123036Y0043398D02*
X0123036Y0045333D01*
X0123520Y0045817D01*
X0124487Y0045817D01*
X0124971Y0045333D01*
X0124971Y0044366D02*
X0124003Y0044366D01*
X0124971Y0044366D02*
X0124971Y0043398D01*
X0124487Y0042915D01*
X0123520Y0042915D01*
X0123036Y0043398D01*
X0125982Y0042915D02*
X0125982Y0045817D01*
X0127434Y0045817D01*
X0127917Y0045333D01*
X0127917Y0044366D01*
X0127434Y0043882D01*
X0125982Y0043882D01*
X0126950Y0043882D02*
X0127917Y0042915D01*
X0128929Y0042915D02*
X0128929Y0044850D01*
X0129896Y0045817D01*
X0130864Y0044850D01*
X0130864Y0042915D01*
X0131875Y0042915D02*
X0131875Y0045817D01*
X0132843Y0044850D01*
X0133810Y0045817D01*
X0133810Y0042915D01*
X0130864Y0044366D02*
X0128929Y0044366D01*
X0128862Y0071576D02*
X0126927Y0071576D01*
X0126927Y0074478D01*
X0128862Y0074478D01*
X0129874Y0074478D02*
X0131809Y0074478D01*
X0130841Y0074478D02*
X0130841Y0071576D01*
X0127895Y0073027D02*
X0126927Y0073027D01*
X0125916Y0072543D02*
X0125916Y0072060D01*
X0125432Y0071576D01*
X0124464Y0071576D01*
X0123981Y0072060D01*
X0124464Y0073027D02*
X0123981Y0073511D01*
X0123981Y0073995D01*
X0124464Y0074478D01*
X0125432Y0074478D01*
X0125916Y0073995D01*
X0125432Y0073027D02*
X0125916Y0072543D01*
X0125432Y0073027D02*
X0124464Y0073027D01*
X0122969Y0071576D02*
X0121034Y0071576D01*
X0121034Y0074478D01*
X0122969Y0074478D01*
X0122002Y0073027D02*
X0121034Y0073027D01*
X0120023Y0073027D02*
X0120023Y0073995D01*
X0119539Y0074478D01*
X0118088Y0074478D01*
X0118088Y0071576D01*
X0118088Y0072543D02*
X0119539Y0072543D01*
X0120023Y0073027D01*
X0119055Y0072543D02*
X0120023Y0071576D01*
X0137865Y0074661D02*
X0139800Y0074661D01*
X0138832Y0075629D02*
X0138832Y0073694D01*
X0138376Y0117698D02*
X0138376Y0120125D01*
X0145919Y0129205D02*
X0145919Y0131140D01*
X0146886Y0130173D02*
X0144951Y0130173D01*
X0145069Y0137301D02*
X0145069Y0139728D01*
X0117359Y0130542D02*
X0114932Y0130542D01*
X0098067Y0129385D02*
X0096132Y0129385D01*
X0097100Y0130353D02*
X0097100Y0128418D01*
X0084681Y0130542D02*
X0082255Y0130542D01*
X0075286Y0130784D02*
X0075286Y0129333D01*
X0074802Y0128849D01*
X0072867Y0128849D01*
X0072383Y0129333D01*
X0072383Y0130784D01*
X0075286Y0130784D01*
X0074318Y0127837D02*
X0072383Y0127837D01*
X0073834Y0127837D02*
X0073834Y0125902D01*
X0074318Y0125902D02*
X0072383Y0125902D01*
X0074318Y0125902D02*
X0075286Y0126870D01*
X0074318Y0127837D01*
X0075286Y0124891D02*
X0075286Y0122956D01*
X0075286Y0123923D02*
X0072383Y0123923D01*
X0072383Y0121944D02*
X0074318Y0121944D01*
X0075286Y0120977D01*
X0074318Y0120009D01*
X0072383Y0120009D01*
X0073834Y0120009D02*
X0073834Y0121944D01*
X0065049Y0121959D02*
X0065049Y0122926D01*
X0065049Y0122443D02*
X0062147Y0122443D01*
X0062147Y0122926D02*
X0062147Y0121959D01*
X0065049Y0123938D02*
X0065049Y0125873D01*
X0062147Y0125873D01*
X0062147Y0126870D02*
X0062147Y0127837D01*
X0062147Y0127354D02*
X0065049Y0127354D01*
X0065049Y0127837D02*
X0065049Y0126870D01*
X0063598Y0125873D02*
X0063598Y0124906D01*
X0062147Y0128849D02*
X0065049Y0128849D01*
X0063114Y0129816D02*
X0062147Y0128849D01*
X0063114Y0129816D02*
X0062147Y0130784D01*
X0065049Y0130784D01*
X0051611Y0125055D02*
X0049676Y0125055D01*
X0050643Y0126022D02*
X0050643Y0124087D01*
X0040587Y0125030D02*
X0038160Y0125030D01*
X0031191Y0125092D02*
X0028289Y0125092D01*
X0028289Y0123113D02*
X0031191Y0121178D01*
X0031191Y0123113D02*
X0028289Y0121178D01*
X0031191Y0124124D02*
X0031191Y0126059D01*
X0020955Y0126059D02*
X0020955Y0124608D01*
X0020471Y0124124D01*
X0019504Y0124124D01*
X0019020Y0124608D01*
X0019020Y0126059D01*
X0019020Y0125092D02*
X0018052Y0124124D01*
X0018052Y0123113D02*
X0020955Y0121178D01*
X0020955Y0123113D02*
X0018052Y0121178D01*
X0018052Y0126059D02*
X0020955Y0126059D01*
D12*
X0014871Y0132686D02*
X0014871Y0137686D01*
X0054871Y0137686D02*
X0054871Y0132686D01*
X0058690Y0134300D02*
X0061190Y0131800D01*
X0066190Y0131800D01*
X0068690Y0134300D01*
X0071190Y0131800D01*
X0076190Y0131800D01*
X0078690Y0134300D01*
X0081190Y0131800D01*
X0086190Y0131800D01*
X0088690Y0134300D01*
X0088690Y0139300D01*
X0086190Y0141800D01*
X0081190Y0141800D01*
X0078690Y0139300D01*
X0076190Y0141800D01*
X0071190Y0141800D01*
X0068690Y0139300D01*
X0066190Y0141800D01*
X0061190Y0141800D01*
X0058690Y0139300D01*
X0058690Y0134300D01*
X0091485Y0134339D02*
X0093985Y0131839D01*
X0098985Y0131839D01*
X0101485Y0134339D01*
X0103985Y0131839D01*
X0108985Y0131839D01*
X0111485Y0134339D01*
X0113985Y0131839D01*
X0118985Y0131839D01*
X0121485Y0134339D01*
X0121485Y0139339D01*
X0118985Y0141839D01*
X0113985Y0141839D01*
X0111485Y0139339D01*
X0108985Y0141839D01*
X0103985Y0141839D01*
X0101485Y0139339D01*
X0098985Y0141839D01*
X0093985Y0141839D01*
X0091485Y0139339D01*
X0091485Y0134339D01*
X0132666Y0132528D02*
X0132666Y0127528D01*
X0135166Y0125028D01*
X0140166Y0125028D01*
X0142666Y0127528D01*
X0142666Y0132528D01*
X0140166Y0135028D01*
X0142666Y0137528D01*
X0142666Y0142528D01*
X0140166Y0145028D01*
X0135166Y0145028D01*
X0132666Y0142528D01*
X0132666Y0137528D01*
X0135166Y0135028D01*
X0132666Y0132528D01*
X0135757Y0116918D02*
X0140757Y0116918D01*
X0140757Y0076918D02*
X0135757Y0076918D01*
X0133804Y0070926D02*
X0116804Y0070926D01*
X0113304Y0062973D02*
X0113304Y0054926D01*
X0116804Y0046926D02*
X0133804Y0046926D01*
X0132859Y0042265D02*
X0115859Y0042265D01*
X0112359Y0034312D02*
X0112359Y0026265D01*
X0115859Y0018265D02*
X0132859Y0018265D01*
X0136359Y0026265D02*
X0136359Y0034194D01*
X0117359Y0030265D02*
X0117361Y0030437D01*
X0117367Y0030608D01*
X0117378Y0030780D01*
X0117393Y0030951D01*
X0117412Y0031122D01*
X0117435Y0031292D01*
X0117462Y0031462D01*
X0117494Y0031631D01*
X0117529Y0031799D01*
X0117569Y0031966D01*
X0117613Y0032132D01*
X0117660Y0032297D01*
X0117712Y0032461D01*
X0117768Y0032623D01*
X0117828Y0032784D01*
X0117892Y0032944D01*
X0117960Y0033102D01*
X0118031Y0033258D01*
X0118106Y0033412D01*
X0118186Y0033565D01*
X0118268Y0033715D01*
X0118355Y0033864D01*
X0118445Y0034010D01*
X0118539Y0034154D01*
X0118636Y0034296D01*
X0118737Y0034435D01*
X0118841Y0034572D01*
X0118948Y0034706D01*
X0119059Y0034837D01*
X0119172Y0034966D01*
X0119289Y0035092D01*
X0119409Y0035215D01*
X0119532Y0035335D01*
X0119658Y0035452D01*
X0119787Y0035565D01*
X0119918Y0035676D01*
X0120052Y0035783D01*
X0120189Y0035887D01*
X0120328Y0035988D01*
X0120470Y0036085D01*
X0120614Y0036179D01*
X0120760Y0036269D01*
X0120909Y0036356D01*
X0121059Y0036438D01*
X0121212Y0036518D01*
X0121366Y0036593D01*
X0121522Y0036664D01*
X0121680Y0036732D01*
X0121840Y0036796D01*
X0122001Y0036856D01*
X0122163Y0036912D01*
X0122327Y0036964D01*
X0122492Y0037011D01*
X0122658Y0037055D01*
X0122825Y0037095D01*
X0122993Y0037130D01*
X0123162Y0037162D01*
X0123332Y0037189D01*
X0123502Y0037212D01*
X0123673Y0037231D01*
X0123844Y0037246D01*
X0124016Y0037257D01*
X0124187Y0037263D01*
X0124359Y0037265D01*
X0124531Y0037263D01*
X0124702Y0037257D01*
X0124874Y0037246D01*
X0125045Y0037231D01*
X0125216Y0037212D01*
X0125386Y0037189D01*
X0125556Y0037162D01*
X0125725Y0037130D01*
X0125893Y0037095D01*
X0126060Y0037055D01*
X0126226Y0037011D01*
X0126391Y0036964D01*
X0126555Y0036912D01*
X0126717Y0036856D01*
X0126878Y0036796D01*
X0127038Y0036732D01*
X0127196Y0036664D01*
X0127352Y0036593D01*
X0127506Y0036518D01*
X0127659Y0036438D01*
X0127809Y0036356D01*
X0127958Y0036269D01*
X0128104Y0036179D01*
X0128248Y0036085D01*
X0128390Y0035988D01*
X0128529Y0035887D01*
X0128666Y0035783D01*
X0128800Y0035676D01*
X0128931Y0035565D01*
X0129060Y0035452D01*
X0129186Y0035335D01*
X0129309Y0035215D01*
X0129429Y0035092D01*
X0129546Y0034966D01*
X0129659Y0034837D01*
X0129770Y0034706D01*
X0129877Y0034572D01*
X0129981Y0034435D01*
X0130082Y0034296D01*
X0130179Y0034154D01*
X0130273Y0034010D01*
X0130363Y0033864D01*
X0130450Y0033715D01*
X0130532Y0033565D01*
X0130612Y0033412D01*
X0130687Y0033258D01*
X0130758Y0033102D01*
X0130826Y0032944D01*
X0130890Y0032784D01*
X0130950Y0032623D01*
X0131006Y0032461D01*
X0131058Y0032297D01*
X0131105Y0032132D01*
X0131149Y0031966D01*
X0131189Y0031799D01*
X0131224Y0031631D01*
X0131256Y0031462D01*
X0131283Y0031292D01*
X0131306Y0031122D01*
X0131325Y0030951D01*
X0131340Y0030780D01*
X0131351Y0030608D01*
X0131357Y0030437D01*
X0131359Y0030265D01*
X0131357Y0030093D01*
X0131351Y0029922D01*
X0131340Y0029750D01*
X0131325Y0029579D01*
X0131306Y0029408D01*
X0131283Y0029238D01*
X0131256Y0029068D01*
X0131224Y0028899D01*
X0131189Y0028731D01*
X0131149Y0028564D01*
X0131105Y0028398D01*
X0131058Y0028233D01*
X0131006Y0028069D01*
X0130950Y0027907D01*
X0130890Y0027746D01*
X0130826Y0027586D01*
X0130758Y0027428D01*
X0130687Y0027272D01*
X0130612Y0027118D01*
X0130532Y0026965D01*
X0130450Y0026815D01*
X0130363Y0026666D01*
X0130273Y0026520D01*
X0130179Y0026376D01*
X0130082Y0026234D01*
X0129981Y0026095D01*
X0129877Y0025958D01*
X0129770Y0025824D01*
X0129659Y0025693D01*
X0129546Y0025564D01*
X0129429Y0025438D01*
X0129309Y0025315D01*
X0129186Y0025195D01*
X0129060Y0025078D01*
X0128931Y0024965D01*
X0128800Y0024854D01*
X0128666Y0024747D01*
X0128529Y0024643D01*
X0128390Y0024542D01*
X0128248Y0024445D01*
X0128104Y0024351D01*
X0127958Y0024261D01*
X0127809Y0024174D01*
X0127659Y0024092D01*
X0127506Y0024012D01*
X0127352Y0023937D01*
X0127196Y0023866D01*
X0127038Y0023798D01*
X0126878Y0023734D01*
X0126717Y0023674D01*
X0126555Y0023618D01*
X0126391Y0023566D01*
X0126226Y0023519D01*
X0126060Y0023475D01*
X0125893Y0023435D01*
X0125725Y0023400D01*
X0125556Y0023368D01*
X0125386Y0023341D01*
X0125216Y0023318D01*
X0125045Y0023299D01*
X0124874Y0023284D01*
X0124702Y0023273D01*
X0124531Y0023267D01*
X0124359Y0023265D01*
X0124187Y0023267D01*
X0124016Y0023273D01*
X0123844Y0023284D01*
X0123673Y0023299D01*
X0123502Y0023318D01*
X0123332Y0023341D01*
X0123162Y0023368D01*
X0122993Y0023400D01*
X0122825Y0023435D01*
X0122658Y0023475D01*
X0122492Y0023519D01*
X0122327Y0023566D01*
X0122163Y0023618D01*
X0122001Y0023674D01*
X0121840Y0023734D01*
X0121680Y0023798D01*
X0121522Y0023866D01*
X0121366Y0023937D01*
X0121212Y0024012D01*
X0121059Y0024092D01*
X0120909Y0024174D01*
X0120760Y0024261D01*
X0120614Y0024351D01*
X0120470Y0024445D01*
X0120328Y0024542D01*
X0120189Y0024643D01*
X0120052Y0024747D01*
X0119918Y0024854D01*
X0119787Y0024965D01*
X0119658Y0025078D01*
X0119532Y0025195D01*
X0119409Y0025315D01*
X0119289Y0025438D01*
X0119172Y0025564D01*
X0119059Y0025693D01*
X0118948Y0025824D01*
X0118841Y0025958D01*
X0118737Y0026095D01*
X0118636Y0026234D01*
X0118539Y0026376D01*
X0118445Y0026520D01*
X0118355Y0026666D01*
X0118268Y0026815D01*
X0118186Y0026965D01*
X0118106Y0027118D01*
X0118031Y0027272D01*
X0117960Y0027428D01*
X0117892Y0027586D01*
X0117828Y0027746D01*
X0117768Y0027907D01*
X0117712Y0028069D01*
X0117660Y0028233D01*
X0117613Y0028398D01*
X0117569Y0028564D01*
X0117529Y0028731D01*
X0117494Y0028899D01*
X0117462Y0029068D01*
X0117435Y0029238D01*
X0117412Y0029408D01*
X0117393Y0029579D01*
X0117378Y0029750D01*
X0117367Y0029922D01*
X0117361Y0030093D01*
X0117359Y0030265D01*
X0137304Y0054926D02*
X0137304Y0062855D01*
X0118304Y0058926D02*
X0118306Y0059098D01*
X0118312Y0059269D01*
X0118323Y0059441D01*
X0118338Y0059612D01*
X0118357Y0059783D01*
X0118380Y0059953D01*
X0118407Y0060123D01*
X0118439Y0060292D01*
X0118474Y0060460D01*
X0118514Y0060627D01*
X0118558Y0060793D01*
X0118605Y0060958D01*
X0118657Y0061122D01*
X0118713Y0061284D01*
X0118773Y0061445D01*
X0118837Y0061605D01*
X0118905Y0061763D01*
X0118976Y0061919D01*
X0119051Y0062073D01*
X0119131Y0062226D01*
X0119213Y0062376D01*
X0119300Y0062525D01*
X0119390Y0062671D01*
X0119484Y0062815D01*
X0119581Y0062957D01*
X0119682Y0063096D01*
X0119786Y0063233D01*
X0119893Y0063367D01*
X0120004Y0063498D01*
X0120117Y0063627D01*
X0120234Y0063753D01*
X0120354Y0063876D01*
X0120477Y0063996D01*
X0120603Y0064113D01*
X0120732Y0064226D01*
X0120863Y0064337D01*
X0120997Y0064444D01*
X0121134Y0064548D01*
X0121273Y0064649D01*
X0121415Y0064746D01*
X0121559Y0064840D01*
X0121705Y0064930D01*
X0121854Y0065017D01*
X0122004Y0065099D01*
X0122157Y0065179D01*
X0122311Y0065254D01*
X0122467Y0065325D01*
X0122625Y0065393D01*
X0122785Y0065457D01*
X0122946Y0065517D01*
X0123108Y0065573D01*
X0123272Y0065625D01*
X0123437Y0065672D01*
X0123603Y0065716D01*
X0123770Y0065756D01*
X0123938Y0065791D01*
X0124107Y0065823D01*
X0124277Y0065850D01*
X0124447Y0065873D01*
X0124618Y0065892D01*
X0124789Y0065907D01*
X0124961Y0065918D01*
X0125132Y0065924D01*
X0125304Y0065926D01*
X0125476Y0065924D01*
X0125647Y0065918D01*
X0125819Y0065907D01*
X0125990Y0065892D01*
X0126161Y0065873D01*
X0126331Y0065850D01*
X0126501Y0065823D01*
X0126670Y0065791D01*
X0126838Y0065756D01*
X0127005Y0065716D01*
X0127171Y0065672D01*
X0127336Y0065625D01*
X0127500Y0065573D01*
X0127662Y0065517D01*
X0127823Y0065457D01*
X0127983Y0065393D01*
X0128141Y0065325D01*
X0128297Y0065254D01*
X0128451Y0065179D01*
X0128604Y0065099D01*
X0128754Y0065017D01*
X0128903Y0064930D01*
X0129049Y0064840D01*
X0129193Y0064746D01*
X0129335Y0064649D01*
X0129474Y0064548D01*
X0129611Y0064444D01*
X0129745Y0064337D01*
X0129876Y0064226D01*
X0130005Y0064113D01*
X0130131Y0063996D01*
X0130254Y0063876D01*
X0130374Y0063753D01*
X0130491Y0063627D01*
X0130604Y0063498D01*
X0130715Y0063367D01*
X0130822Y0063233D01*
X0130926Y0063096D01*
X0131027Y0062957D01*
X0131124Y0062815D01*
X0131218Y0062671D01*
X0131308Y0062525D01*
X0131395Y0062376D01*
X0131477Y0062226D01*
X0131557Y0062073D01*
X0131632Y0061919D01*
X0131703Y0061763D01*
X0131771Y0061605D01*
X0131835Y0061445D01*
X0131895Y0061284D01*
X0131951Y0061122D01*
X0132003Y0060958D01*
X0132050Y0060793D01*
X0132094Y0060627D01*
X0132134Y0060460D01*
X0132169Y0060292D01*
X0132201Y0060123D01*
X0132228Y0059953D01*
X0132251Y0059783D01*
X0132270Y0059612D01*
X0132285Y0059441D01*
X0132296Y0059269D01*
X0132302Y0059098D01*
X0132304Y0058926D01*
X0132302Y0058754D01*
X0132296Y0058583D01*
X0132285Y0058411D01*
X0132270Y0058240D01*
X0132251Y0058069D01*
X0132228Y0057899D01*
X0132201Y0057729D01*
X0132169Y0057560D01*
X0132134Y0057392D01*
X0132094Y0057225D01*
X0132050Y0057059D01*
X0132003Y0056894D01*
X0131951Y0056730D01*
X0131895Y0056568D01*
X0131835Y0056407D01*
X0131771Y0056247D01*
X0131703Y0056089D01*
X0131632Y0055933D01*
X0131557Y0055779D01*
X0131477Y0055626D01*
X0131395Y0055476D01*
X0131308Y0055327D01*
X0131218Y0055181D01*
X0131124Y0055037D01*
X0131027Y0054895D01*
X0130926Y0054756D01*
X0130822Y0054619D01*
X0130715Y0054485D01*
X0130604Y0054354D01*
X0130491Y0054225D01*
X0130374Y0054099D01*
X0130254Y0053976D01*
X0130131Y0053856D01*
X0130005Y0053739D01*
X0129876Y0053626D01*
X0129745Y0053515D01*
X0129611Y0053408D01*
X0129474Y0053304D01*
X0129335Y0053203D01*
X0129193Y0053106D01*
X0129049Y0053012D01*
X0128903Y0052922D01*
X0128754Y0052835D01*
X0128604Y0052753D01*
X0128451Y0052673D01*
X0128297Y0052598D01*
X0128141Y0052527D01*
X0127983Y0052459D01*
X0127823Y0052395D01*
X0127662Y0052335D01*
X0127500Y0052279D01*
X0127336Y0052227D01*
X0127171Y0052180D01*
X0127005Y0052136D01*
X0126838Y0052096D01*
X0126670Y0052061D01*
X0126501Y0052029D01*
X0126331Y0052002D01*
X0126161Y0051979D01*
X0125990Y0051960D01*
X0125819Y0051945D01*
X0125647Y0051934D01*
X0125476Y0051928D01*
X0125304Y0051926D01*
X0125132Y0051928D01*
X0124961Y0051934D01*
X0124789Y0051945D01*
X0124618Y0051960D01*
X0124447Y0051979D01*
X0124277Y0052002D01*
X0124107Y0052029D01*
X0123938Y0052061D01*
X0123770Y0052096D01*
X0123603Y0052136D01*
X0123437Y0052180D01*
X0123272Y0052227D01*
X0123108Y0052279D01*
X0122946Y0052335D01*
X0122785Y0052395D01*
X0122625Y0052459D01*
X0122467Y0052527D01*
X0122311Y0052598D01*
X0122157Y0052673D01*
X0122004Y0052753D01*
X0121854Y0052835D01*
X0121705Y0052922D01*
X0121559Y0053012D01*
X0121415Y0053106D01*
X0121273Y0053203D01*
X0121134Y0053304D01*
X0120997Y0053408D01*
X0120863Y0053515D01*
X0120732Y0053626D01*
X0120603Y0053739D01*
X0120477Y0053856D01*
X0120354Y0053976D01*
X0120234Y0054099D01*
X0120117Y0054225D01*
X0120004Y0054354D01*
X0119893Y0054485D01*
X0119786Y0054619D01*
X0119682Y0054756D01*
X0119581Y0054895D01*
X0119484Y0055037D01*
X0119390Y0055181D01*
X0119300Y0055327D01*
X0119213Y0055476D01*
X0119131Y0055626D01*
X0119051Y0055779D01*
X0118976Y0055933D01*
X0118905Y0056089D01*
X0118837Y0056247D01*
X0118773Y0056407D01*
X0118713Y0056568D01*
X0118657Y0056730D01*
X0118605Y0056894D01*
X0118558Y0057059D01*
X0118514Y0057225D01*
X0118474Y0057392D01*
X0118439Y0057560D01*
X0118407Y0057729D01*
X0118380Y0057899D01*
X0118357Y0058069D01*
X0118338Y0058240D01*
X0118323Y0058411D01*
X0118312Y0058583D01*
X0118306Y0058754D01*
X0118304Y0058926D01*
D13*
X0123803Y0076868D02*
X0123803Y0079120D01*
X0124553Y0079871D01*
X0127556Y0079871D01*
X0128307Y0079120D01*
X0128307Y0076868D01*
X0123803Y0076868D01*
X0123803Y0081472D02*
X0128307Y0081472D01*
X0126055Y0081472D02*
X0126055Y0084475D01*
X0123803Y0084475D02*
X0128307Y0084475D01*
X0128307Y0087577D02*
X0123803Y0087577D01*
X0123803Y0086076D02*
X0123803Y0089079D01*
X0124553Y0090680D02*
X0123803Y0091431D01*
X0123803Y0092932D01*
X0124553Y0093682D01*
X0125304Y0093682D01*
X0128307Y0090680D01*
X0128307Y0093682D01*
X0128307Y0095284D02*
X0125304Y0098286D01*
X0124553Y0098286D01*
X0123803Y0097536D01*
X0123803Y0096034D01*
X0124553Y0095284D01*
X0128307Y0095284D02*
X0128307Y0098286D01*
X0128715Y0124978D02*
X0128715Y0127230D01*
X0127964Y0127981D01*
X0126463Y0127981D01*
X0125712Y0127230D01*
X0125712Y0124978D01*
X0130216Y0124978D01*
X0129466Y0129582D02*
X0126463Y0129582D01*
X0125712Y0130333D01*
X0125712Y0131834D01*
X0126463Y0132585D01*
X0129466Y0132585D01*
X0130216Y0131834D01*
X0130216Y0130333D01*
X0129466Y0129582D01*
X0130216Y0134186D02*
X0125712Y0134186D01*
X0125712Y0137189D02*
X0130216Y0137189D01*
X0128715Y0135687D01*
X0130216Y0134186D01*
X0130216Y0138790D02*
X0130216Y0141793D01*
X0130216Y0143394D02*
X0125712Y0143394D01*
X0125712Y0145646D01*
X0126463Y0146397D01*
X0127964Y0146397D01*
X0128715Y0145646D01*
X0128715Y0143394D01*
X0128715Y0144895D02*
X0130216Y0146397D01*
X0125712Y0141793D02*
X0125712Y0138790D01*
X0130216Y0138790D01*
X0127964Y0138790D02*
X0127964Y0140291D01*
X0102111Y0144289D02*
X0100610Y0145791D01*
X0101360Y0145791D02*
X0099108Y0145791D01*
X0099108Y0144289D02*
X0099108Y0148793D01*
X0101360Y0148793D01*
X0102111Y0148043D01*
X0102111Y0146541D01*
X0101360Y0145791D01*
X0097540Y0144289D02*
X0096039Y0144289D01*
X0096790Y0144289D02*
X0096790Y0148793D01*
X0097540Y0148793D02*
X0096039Y0148793D01*
X0094438Y0148043D02*
X0094438Y0146541D01*
X0093687Y0145791D01*
X0091435Y0145791D01*
X0091435Y0144289D02*
X0091435Y0148793D01*
X0093687Y0148793D01*
X0094438Y0148043D01*
X0075454Y0148003D02*
X0074703Y0148754D01*
X0073202Y0148754D01*
X0072452Y0148003D01*
X0072452Y0147253D01*
X0073202Y0146502D01*
X0074703Y0146502D01*
X0075454Y0145751D01*
X0075454Y0145001D01*
X0074703Y0144250D01*
X0073202Y0144250D01*
X0072452Y0145001D01*
X0070850Y0145001D02*
X0070850Y0148003D01*
X0070100Y0148754D01*
X0067848Y0148754D01*
X0067848Y0144250D01*
X0070100Y0144250D01*
X0070850Y0145001D01*
X0066246Y0144250D02*
X0063244Y0144250D01*
X0063244Y0148754D01*
X0066246Y0148754D01*
X0064745Y0146502D02*
X0063244Y0146502D01*
X0061642Y0144250D02*
X0058640Y0144250D01*
X0058640Y0148754D01*
X0031635Y0149640D02*
X0028633Y0149640D01*
X0030134Y0149640D02*
X0030134Y0145136D01*
X0027031Y0145136D02*
X0025530Y0146637D01*
X0026281Y0146637D02*
X0024029Y0146637D01*
X0024029Y0145136D02*
X0024029Y0149640D01*
X0026281Y0149640D01*
X0027031Y0148889D01*
X0027031Y0147388D01*
X0026281Y0146637D01*
X0022427Y0147388D02*
X0019425Y0147388D01*
X0019425Y0148138D02*
X0019425Y0145136D01*
X0017823Y0145886D02*
X0017823Y0149640D01*
X0019425Y0148138D02*
X0020926Y0149640D01*
X0022427Y0148138D01*
X0022427Y0145136D01*
X0017823Y0145886D02*
X0017073Y0145136D01*
X0015572Y0145136D01*
X0014821Y0145886D01*
X0014821Y0149640D01*
X0029792Y0112824D02*
X0093572Y0112824D01*
X0093572Y0017942D01*
X0029792Y0017942D01*
X0029792Y0112824D01*
D14*
X0041859Y0068887D02*
X0041859Y0064283D01*
X0044928Y0064283D01*
X0046463Y0065051D02*
X0047230Y0064283D01*
X0048765Y0064283D01*
X0049532Y0065051D01*
X0049532Y0065818D01*
X0048765Y0066585D01*
X0047230Y0066585D01*
X0046463Y0067353D01*
X0046463Y0068120D01*
X0047230Y0068887D01*
X0048765Y0068887D01*
X0049532Y0068120D01*
X0051067Y0068887D02*
X0053369Y0068887D01*
X0054136Y0068120D01*
X0054136Y0066585D01*
X0053369Y0065818D01*
X0051067Y0065818D01*
X0051067Y0064283D02*
X0051067Y0068887D01*
X0055671Y0066585D02*
X0058740Y0066585D01*
X0060275Y0067353D02*
X0061809Y0068887D01*
X0061809Y0064283D01*
X0060275Y0064283D02*
X0063344Y0064283D01*
X0064879Y0064283D02*
X0067948Y0067353D01*
X0067948Y0068120D01*
X0067181Y0068887D01*
X0065646Y0068887D01*
X0064879Y0068120D01*
X0064879Y0064283D02*
X0067948Y0064283D01*
X0069483Y0064283D02*
X0072552Y0064283D01*
X0071017Y0066585D02*
X0069483Y0066585D01*
X0069483Y0068887D02*
X0069483Y0064283D01*
X0069483Y0068887D02*
X0072552Y0068887D01*
X0044928Y0068887D02*
X0041859Y0068887D01*
X0041859Y0066585D02*
X0043394Y0066585D01*
D15*
X0098375Y0117391D03*
X0108257Y0117076D03*
X0115383Y0098611D03*
X0112784Y0080540D03*
X0104910Y0080540D03*
D16*
X0104823Y0087133D02*
X0104323Y0087634D01*
X0104573Y0087634D02*
X0103822Y0087634D01*
X0103822Y0087133D02*
X0103822Y0088635D01*
X0104573Y0088635D01*
X0104823Y0088385D01*
X0104823Y0087884D01*
X0104573Y0087634D01*
X0105296Y0087884D02*
X0106046Y0087884D01*
X0106297Y0087634D01*
X0106297Y0087384D01*
X0106046Y0087133D01*
X0105546Y0087133D01*
X0105296Y0087384D01*
X0105296Y0087884D01*
X0105796Y0088385D01*
X0106297Y0088635D01*
X0111696Y0088635D02*
X0111696Y0087133D01*
X0111696Y0087634D02*
X0112447Y0087634D01*
X0112697Y0087884D01*
X0112697Y0088385D01*
X0112447Y0088635D01*
X0111696Y0088635D01*
X0112197Y0087634D02*
X0112697Y0087133D01*
X0113170Y0087384D02*
X0113420Y0087133D01*
X0113920Y0087133D01*
X0114171Y0087384D01*
X0114171Y0087884D01*
X0113920Y0088134D01*
X0113670Y0088134D01*
X0113170Y0087884D01*
X0113170Y0088635D01*
X0114171Y0088635D01*
X0114098Y0105480D02*
X0114098Y0106981D01*
X0114849Y0106981D01*
X0115099Y0106731D01*
X0115099Y0106231D01*
X0114849Y0105980D01*
X0114098Y0105980D01*
X0114598Y0105980D02*
X0115099Y0105480D01*
X0115571Y0105480D02*
X0116572Y0105480D01*
X0116072Y0105480D02*
X0116072Y0106981D01*
X0115571Y0106481D01*
X0109275Y0123944D02*
X0108774Y0123944D01*
X0108524Y0124195D01*
X0108052Y0123944D02*
X0107551Y0124445D01*
X0107801Y0124445D02*
X0107051Y0124445D01*
X0107051Y0123944D02*
X0107051Y0125446D01*
X0107801Y0125446D01*
X0108052Y0125196D01*
X0108052Y0124695D01*
X0107801Y0124445D01*
X0108524Y0125196D02*
X0108774Y0125446D01*
X0109275Y0125446D01*
X0109525Y0125196D01*
X0109525Y0124945D01*
X0109275Y0124695D01*
X0109525Y0124445D01*
X0109525Y0124195D01*
X0109275Y0123944D01*
X0109275Y0124695D02*
X0109024Y0124695D01*
X0099761Y0124299D02*
X0098760Y0124299D01*
X0099761Y0125300D01*
X0099761Y0125550D01*
X0099511Y0125800D01*
X0099010Y0125800D01*
X0098760Y0125550D01*
X0098288Y0125550D02*
X0098288Y0125049D01*
X0098038Y0124799D01*
X0097287Y0124799D01*
X0097287Y0124299D02*
X0097287Y0125800D01*
X0098038Y0125800D01*
X0098288Y0125550D01*
X0097787Y0124799D02*
X0098288Y0124299D01*
M02*
