G75*
%MOIN*%
%OFA0B0*%
%FSLAX25Y25*%
%IPPOS*%
%LPD*%
%AMOC8*
5,1,8,0,0,1.08239X$1,22.5*
%
%ADD10C,0.00000*%
%ADD11C,0.00600*%
%ADD12C,0.00300*%
%ADD13C,0.00800*%
%ADD14C,0.00100*%
%ADD15C,0.01500*%
%ADD16R,0.01500X0.03000*%
%ADD17R,0.03000X0.01500*%
D10*
X0010658Y0015028D02*
X0010619Y0152587D01*
X0147942Y0152587D01*
X0147942Y0014871D01*
X0010658Y0015028D01*
D11*
X0018212Y0034194D02*
X0018212Y0040600D01*
X0020347Y0040600D02*
X0016077Y0040600D01*
X0022522Y0037397D02*
X0022522Y0035262D01*
X0023590Y0034194D01*
X0025725Y0034194D01*
X0026793Y0035262D01*
X0026793Y0037397D01*
X0025725Y0038465D01*
X0023590Y0038465D01*
X0022522Y0037397D01*
X0028954Y0034194D02*
X0031090Y0034194D01*
X0030022Y0034194D02*
X0030022Y0040600D01*
X0031090Y0040600D02*
X0028954Y0040600D01*
X0033258Y0038465D02*
X0034326Y0038465D01*
X0036461Y0036330D01*
X0036461Y0038465D02*
X0036461Y0034194D01*
X0038636Y0034194D02*
X0038636Y0037397D01*
X0039704Y0038465D01*
X0041839Y0038465D01*
X0041839Y0036330D02*
X0038636Y0036330D01*
X0038636Y0034194D02*
X0041839Y0034194D01*
X0042906Y0035262D01*
X0041839Y0036330D01*
X0045082Y0037397D02*
X0045082Y0034194D01*
X0045082Y0037397D02*
X0046149Y0038465D01*
X0048284Y0038465D01*
X0049352Y0037397D01*
X0051527Y0035262D02*
X0052595Y0034194D01*
X0054730Y0034194D01*
X0055797Y0035262D01*
X0055797Y0039532D01*
X0054730Y0040600D01*
X0052595Y0040600D01*
X0051527Y0039532D01*
X0049352Y0040600D02*
X0049352Y0034194D01*
D12*
X0048428Y0030275D02*
X0046576Y0030275D01*
X0045959Y0029658D01*
X0045959Y0028424D01*
X0046576Y0027806D01*
X0048428Y0027806D01*
X0048428Y0026572D02*
X0048428Y0030275D01*
X0047193Y0027806D02*
X0045959Y0026572D01*
X0044744Y0026572D02*
X0044744Y0030275D01*
X0042276Y0030275D01*
X0043510Y0028424D02*
X0044744Y0028424D01*
X0042069Y0022912D02*
X0041102Y0022912D01*
X0040618Y0022429D01*
X0040618Y0020494D01*
X0041102Y0020010D01*
X0042069Y0020010D01*
X0042553Y0020494D01*
X0042553Y0022429D01*
X0042069Y0022912D01*
X0039607Y0022912D02*
X0039607Y0020010D01*
X0038155Y0020010D01*
X0037672Y0020494D01*
X0037672Y0021461D01*
X0038155Y0021945D01*
X0039607Y0021945D01*
X0036660Y0020494D02*
X0036176Y0020010D01*
X0034725Y0020010D01*
X0034725Y0021461D01*
X0035209Y0021945D01*
X0036176Y0021945D01*
X0036176Y0020977D02*
X0034725Y0020977D01*
X0033714Y0020010D02*
X0032746Y0020010D01*
X0033230Y0020010D02*
X0033230Y0021945D01*
X0033714Y0021945D01*
X0033230Y0022912D02*
X0033230Y0023396D01*
X0031749Y0021461D02*
X0031266Y0021945D01*
X0029814Y0021945D01*
X0029814Y0022912D02*
X0029814Y0020010D01*
X0031266Y0020010D01*
X0031749Y0020494D01*
X0031749Y0021461D01*
X0036176Y0020977D02*
X0036660Y0020494D01*
X0036144Y0026572D02*
X0034909Y0027806D01*
X0034909Y0030275D01*
X0033078Y0029041D02*
X0031843Y0029041D01*
X0031226Y0028424D01*
X0031226Y0027806D01*
X0033695Y0027806D01*
X0033695Y0027189D02*
X0033695Y0028424D01*
X0033078Y0029041D01*
X0033695Y0027189D02*
X0033078Y0026572D01*
X0031843Y0026572D01*
X0030012Y0026572D02*
X0030012Y0029041D01*
X0028778Y0029041D02*
X0028160Y0029041D01*
X0028778Y0029041D02*
X0030012Y0027806D01*
X0025856Y0022912D02*
X0024889Y0021945D01*
X0023921Y0022912D01*
X0023921Y0020010D01*
X0022910Y0020494D02*
X0022426Y0020977D01*
X0020975Y0020977D01*
X0020975Y0021461D02*
X0020975Y0020010D01*
X0022426Y0020010D01*
X0022910Y0020494D01*
X0022426Y0021945D02*
X0021459Y0021945D01*
X0020975Y0021461D01*
X0019963Y0020010D02*
X0018996Y0020010D01*
X0019480Y0020010D02*
X0019480Y0022912D01*
X0019963Y0022912D01*
X0017999Y0021945D02*
X0017515Y0021945D01*
X0017515Y0020010D01*
X0017999Y0020010D02*
X0017031Y0020010D01*
X0016035Y0020010D02*
X0016035Y0022912D01*
X0017515Y0022912D02*
X0017515Y0023396D01*
X0016035Y0020977D02*
X0014583Y0021945D01*
X0016035Y0020977D02*
X0014583Y0020010D01*
X0015266Y0026572D02*
X0017735Y0026572D01*
X0018959Y0026572D02*
X0018959Y0027189D01*
X0019576Y0027189D01*
X0019576Y0026572D01*
X0018959Y0026572D01*
X0020791Y0027189D02*
X0021408Y0026572D01*
X0022642Y0026572D01*
X0023259Y0027189D01*
X0020791Y0029658D01*
X0020791Y0027189D01*
X0023259Y0027189D02*
X0023259Y0029658D01*
X0022642Y0030275D01*
X0021408Y0030275D01*
X0020791Y0029658D01*
X0017735Y0029041D02*
X0016500Y0030275D01*
X0016500Y0026572D01*
X0025856Y0022912D02*
X0025856Y0020010D01*
X0036144Y0026572D02*
X0037378Y0027806D01*
X0037378Y0030275D01*
X0053325Y0028424D02*
X0053942Y0029041D01*
X0055177Y0029041D01*
X0055794Y0028424D01*
X0055794Y0027189D01*
X0055177Y0026572D01*
X0053942Y0026572D01*
X0053325Y0027189D01*
X0053325Y0028424D01*
X0057008Y0030275D02*
X0057008Y0026572D01*
X0059477Y0030275D01*
X0059477Y0026572D01*
D13*
X0054434Y0060357D02*
X0067434Y0060357D01*
X0067434Y0086157D01*
X0054434Y0086157D01*
X0054434Y0060357D01*
X0056406Y0094241D02*
X0060343Y0094241D01*
X0056406Y0094241D02*
X0052076Y0098572D01*
X0052076Y0115107D01*
X0060343Y0115107D01*
X0064674Y0115107D02*
X0072942Y0115107D01*
X0072942Y0098572D01*
X0068611Y0094241D01*
X0064477Y0094241D01*
X0064477Y0095028D02*
X0064711Y0095082D01*
X0064945Y0095140D01*
X0065176Y0095205D01*
X0065406Y0095275D01*
X0065634Y0095351D01*
X0065861Y0095432D01*
X0066085Y0095518D01*
X0066307Y0095611D01*
X0066527Y0095708D01*
X0066744Y0095811D01*
X0066959Y0095919D01*
X0067171Y0096032D01*
X0067381Y0096151D01*
X0067587Y0096274D01*
X0067790Y0096402D01*
X0067990Y0096536D01*
X0068187Y0096674D01*
X0068381Y0096817D01*
X0068571Y0096964D01*
X0068757Y0097116D01*
X0068939Y0097273D01*
X0069118Y0097434D01*
X0069292Y0097599D01*
X0069463Y0097769D01*
X0069629Y0097942D01*
X0069792Y0098120D01*
X0069949Y0098301D01*
X0070103Y0098487D01*
X0070251Y0098676D01*
X0070395Y0098868D01*
X0070535Y0099064D01*
X0070669Y0099263D01*
X0070799Y0099466D01*
X0070924Y0099671D01*
X0071044Y0099880D01*
X0071158Y0100091D01*
X0071268Y0100305D01*
X0071372Y0100522D01*
X0071471Y0100741D01*
X0071564Y0100963D01*
X0071652Y0101187D01*
X0071735Y0101412D01*
X0071812Y0101640D01*
X0071883Y0101870D01*
X0071949Y0102101D01*
X0072010Y0102334D01*
X0072064Y0102568D01*
X0072113Y0102803D01*
X0072156Y0103040D01*
X0072194Y0103277D01*
X0072225Y0103516D01*
X0072251Y0103755D01*
X0072271Y0103995D01*
X0072285Y0104235D01*
X0072294Y0104475D01*
X0072296Y0104715D01*
X0072293Y0104956D01*
X0072283Y0105196D01*
X0072268Y0105436D01*
X0072247Y0105676D01*
X0072221Y0105915D01*
X0072188Y0106153D01*
X0072150Y0106390D01*
X0072106Y0106627D01*
X0072056Y0106862D01*
X0072000Y0107096D01*
X0071939Y0107328D01*
X0071872Y0107559D01*
X0071800Y0107789D01*
X0071722Y0108016D01*
X0071638Y0108242D01*
X0071549Y0108465D01*
X0071455Y0108686D01*
X0071355Y0108905D01*
X0071250Y0109121D01*
X0071140Y0109335D01*
X0071025Y0109546D01*
X0070904Y0109754D01*
X0070779Y0109959D01*
X0070648Y0110161D01*
X0070513Y0110360D01*
X0070373Y0110555D01*
X0070228Y0110747D01*
X0070078Y0110935D01*
X0069924Y0111120D01*
X0069766Y0111301D01*
X0069603Y0111478D01*
X0069436Y0111651D01*
X0069265Y0111820D01*
X0069089Y0111984D01*
X0068910Y0112145D01*
X0068727Y0112300D01*
X0068540Y0112452D01*
X0068350Y0112599D01*
X0068156Y0112741D01*
X0067958Y0112878D01*
X0067758Y0113011D01*
X0067554Y0113138D01*
X0067347Y0113261D01*
X0067137Y0113378D01*
X0066925Y0113491D01*
X0066710Y0113598D01*
X0066492Y0113700D01*
X0066272Y0113797D01*
X0066049Y0113888D01*
X0065824Y0113974D01*
X0065598Y0114054D01*
X0065369Y0114129D01*
X0065139Y0114198D01*
X0064907Y0114261D01*
X0064674Y0114319D01*
X0060343Y0114320D02*
X0060111Y0114267D01*
X0059880Y0114208D01*
X0059651Y0114144D01*
X0059424Y0114073D01*
X0059198Y0113998D01*
X0058974Y0113917D01*
X0058752Y0113830D01*
X0058533Y0113738D01*
X0058316Y0113641D01*
X0058101Y0113538D01*
X0057889Y0113430D01*
X0057679Y0113317D01*
X0057472Y0113199D01*
X0057269Y0113076D01*
X0057068Y0112948D01*
X0056870Y0112815D01*
X0056676Y0112678D01*
X0056485Y0112535D01*
X0056298Y0112388D01*
X0056114Y0112237D01*
X0055935Y0112081D01*
X0055759Y0111921D01*
X0055587Y0111756D01*
X0055419Y0111587D01*
X0055255Y0111415D01*
X0055095Y0111238D01*
X0054940Y0111057D01*
X0054789Y0110873D01*
X0054643Y0110685D01*
X0054502Y0110494D01*
X0054365Y0110299D01*
X0054233Y0110101D01*
X0054106Y0109900D01*
X0053983Y0109695D01*
X0053866Y0109488D01*
X0053754Y0109278D01*
X0053647Y0109065D01*
X0053545Y0108850D01*
X0053449Y0108633D01*
X0053358Y0108413D01*
X0053272Y0108191D01*
X0053192Y0107966D01*
X0053117Y0107740D01*
X0053048Y0107513D01*
X0052984Y0107283D01*
X0052926Y0107052D01*
X0052874Y0106820D01*
X0052827Y0106587D01*
X0052786Y0106352D01*
X0052751Y0106117D01*
X0052722Y0105881D01*
X0052698Y0105644D01*
X0052680Y0105406D01*
X0052668Y0105169D01*
X0052662Y0104931D01*
X0052662Y0104693D01*
X0052667Y0104455D01*
X0052678Y0104217D01*
X0052695Y0103979D01*
X0052718Y0103742D01*
X0052746Y0103506D01*
X0052781Y0103270D01*
X0052821Y0103036D01*
X0052866Y0102802D01*
X0052918Y0102570D01*
X0052975Y0102339D01*
X0053038Y0102109D01*
X0053106Y0101881D01*
X0053180Y0101655D01*
X0053259Y0101430D01*
X0053344Y0101208D01*
X0053434Y0100987D01*
X0053530Y0100769D01*
X0053631Y0100554D01*
X0053737Y0100341D01*
X0053848Y0100130D01*
X0053965Y0099923D01*
X0054086Y0099718D01*
X0054213Y0099516D01*
X0054344Y0099318D01*
X0054480Y0099122D01*
X0054621Y0098930D01*
X0054766Y0098742D01*
X0054916Y0098557D01*
X0055071Y0098376D01*
X0055230Y0098199D01*
X0055393Y0098025D01*
X0055560Y0097856D01*
X0055732Y0097691D01*
X0055907Y0097530D01*
X0056086Y0097373D01*
X0056269Y0097221D01*
X0056456Y0097073D01*
X0056646Y0096930D01*
X0056840Y0096792D01*
X0057037Y0096658D01*
X0057237Y0096530D01*
X0057440Y0096406D01*
X0057647Y0096287D01*
X0057856Y0096173D01*
X0058068Y0096064D01*
X0058282Y0095961D01*
X0058499Y0095863D01*
X0058718Y0095770D01*
X0058940Y0095683D01*
X0059163Y0095601D01*
X0059388Y0095524D01*
X0059616Y0095453D01*
X0059845Y0095388D01*
X0060075Y0095328D01*
X0060307Y0095274D01*
X0060540Y0095225D01*
D14*
X0053242Y0088635D02*
X0053242Y0087133D01*
X0053242Y0087634D02*
X0052491Y0087634D01*
X0052241Y0087884D01*
X0052241Y0088385D01*
X0052491Y0088635D01*
X0053242Y0088635D01*
X0052742Y0087634D02*
X0052241Y0087133D01*
X0051769Y0087384D02*
X0051769Y0087634D01*
X0051519Y0087884D01*
X0051018Y0087884D01*
X0050768Y0087634D01*
X0050768Y0087384D01*
X0051018Y0087133D01*
X0051519Y0087133D01*
X0051769Y0087384D01*
X0051519Y0087884D02*
X0051769Y0088134D01*
X0051769Y0088385D01*
X0051519Y0088635D01*
X0051018Y0088635D01*
X0050768Y0088385D01*
X0050768Y0088134D01*
X0051018Y0087884D01*
X0046826Y0110242D02*
X0046826Y0111743D01*
X0046076Y0111743D01*
X0045826Y0111493D01*
X0045826Y0110993D01*
X0046076Y0110743D01*
X0046826Y0110743D01*
X0046326Y0110743D02*
X0045826Y0110242D01*
X0045353Y0110242D02*
X0045353Y0110492D01*
X0044352Y0111493D01*
X0044352Y0111743D01*
X0045353Y0111743D01*
X0070418Y0116299D02*
X0071418Y0116299D01*
X0070918Y0116299D02*
X0070918Y0117800D01*
X0071418Y0117300D01*
X0071891Y0117550D02*
X0072141Y0117800D01*
X0072642Y0117800D01*
X0072892Y0117550D01*
X0072892Y0116549D01*
X0072642Y0116299D01*
X0072141Y0116299D01*
X0071891Y0116549D01*
X0078841Y0081612D02*
X0079841Y0081612D01*
X0078841Y0081612D02*
X0078340Y0081111D01*
X0078841Y0080611D01*
X0079841Y0080611D01*
X0079591Y0080138D02*
X0079341Y0080138D01*
X0079091Y0079888D01*
X0078841Y0080138D01*
X0078590Y0080138D01*
X0078340Y0079888D01*
X0078340Y0079388D01*
X0078590Y0079138D01*
X0078590Y0078651D02*
X0078340Y0078651D01*
X0078340Y0078401D01*
X0078590Y0078401D01*
X0078590Y0078651D01*
X0078590Y0077929D02*
X0078340Y0077678D01*
X0078340Y0077178D01*
X0078590Y0076928D01*
X0079091Y0077428D02*
X0079091Y0077678D01*
X0078841Y0077929D01*
X0078590Y0077929D01*
X0079091Y0077678D02*
X0079341Y0077929D01*
X0079591Y0077929D01*
X0079841Y0077678D01*
X0079841Y0077178D01*
X0079591Y0076928D01*
X0079591Y0076455D02*
X0078590Y0075454D01*
X0078340Y0075454D01*
X0078340Y0074982D02*
X0078340Y0073981D01*
X0078340Y0073509D02*
X0078340Y0072508D01*
X0078340Y0073008D02*
X0079841Y0073008D01*
X0079341Y0072508D01*
X0079591Y0072036D02*
X0079841Y0071785D01*
X0079841Y0071285D01*
X0079591Y0071035D01*
X0079341Y0071035D01*
X0079091Y0071285D01*
X0079091Y0071785D01*
X0078841Y0072036D01*
X0078590Y0072036D01*
X0078340Y0071785D01*
X0078340Y0071285D01*
X0078590Y0071035D01*
X0078340Y0070562D02*
X0079841Y0070562D01*
X0079341Y0070062D01*
X0079841Y0069561D01*
X0078340Y0069561D01*
X0078340Y0069089D02*
X0079341Y0069089D01*
X0079841Y0068589D01*
X0079341Y0068088D01*
X0078340Y0068088D01*
X0079091Y0068088D02*
X0079091Y0069089D01*
X0079341Y0073981D02*
X0079841Y0074482D01*
X0078340Y0074482D01*
X0079841Y0075454D02*
X0079841Y0076455D01*
X0079591Y0076455D01*
X0079591Y0079138D02*
X0079841Y0079388D01*
X0079841Y0079888D01*
X0079591Y0080138D01*
X0079091Y0079888D02*
X0079091Y0079638D01*
X0063622Y0050918D02*
X0063872Y0050668D01*
X0063872Y0049667D01*
X0063622Y0049417D01*
X0063121Y0049417D01*
X0062871Y0049667D01*
X0062399Y0049417D02*
X0061398Y0050418D01*
X0061398Y0050668D01*
X0061648Y0050918D01*
X0062149Y0050918D01*
X0062399Y0050668D01*
X0062871Y0050668D02*
X0063121Y0050918D01*
X0063622Y0050918D01*
X0062399Y0049417D02*
X0061398Y0049417D01*
X0046826Y0049612D02*
X0046826Y0051113D01*
X0046076Y0051113D01*
X0045826Y0050863D01*
X0045826Y0050363D01*
X0046076Y0050113D01*
X0046826Y0050113D01*
X0046326Y0050113D02*
X0045826Y0049612D01*
X0045353Y0050363D02*
X0044352Y0050363D01*
X0044603Y0051113D02*
X0045353Y0050363D01*
X0044603Y0051113D02*
X0044603Y0049612D01*
X0124089Y0124614D02*
X0124089Y0126115D01*
X0124840Y0125364D01*
X0123839Y0125364D01*
X0125312Y0124864D02*
X0125562Y0124614D01*
X0126063Y0124614D01*
X0126313Y0124864D01*
X0126313Y0125865D01*
X0126063Y0126115D01*
X0125562Y0126115D01*
X0125312Y0125865D01*
D15*
X0122863Y0121674D02*
X0122863Y0121454D01*
X0059241Y0053957D02*
X0059241Y0053737D01*
D16*
X0042312Y0054162D03*
X0047036Y0091564D03*
D17*
X0045461Y0103375D03*
M02*
