G75*
%MOIN*%
%OFA0B0*%
%FSLAX25Y25*%
%IPPOS*%
%LPD*%
%AMOC8*
5,1,8,0,0,1.08239X$1,22.5*
%
%ADD10C,0.00000*%
%ADD11R,0.09200X0.05200*%
%ADD12R,0.09061X0.14573*%
%ADD13R,0.04731X0.04337*%
%ADD14C,0.07800*%
%ADD15C,0.07800*%
%ADD16C,0.00500*%
%ADD17R,0.02959X0.09061*%
%ADD18R,0.04337X0.04731*%
D10*
X0010658Y0015028D02*
X0010619Y0152587D01*
X0147942Y0152587D01*
X0147942Y0014871D01*
X0010658Y0015028D01*
D11*
X0048734Y0064157D03*
X0048734Y0073257D03*
X0048734Y0082357D03*
D12*
X0073135Y0073257D03*
D13*
X0062587Y0053847D03*
X0055894Y0053847D03*
X0045658Y0054162D03*
X0038965Y0054162D03*
X0043690Y0091564D03*
X0050383Y0091564D03*
X0119517Y0121564D03*
X0126209Y0121564D03*
D14*
X0134557Y0111918D02*
X0141957Y0111918D01*
X0141957Y0101918D02*
X0134557Y0101918D01*
X0134557Y0091918D02*
X0141957Y0091918D01*
X0141957Y0081918D02*
X0134557Y0081918D01*
X0049871Y0131486D02*
X0049871Y0138886D01*
X0039871Y0138886D02*
X0039871Y0131486D01*
X0029871Y0131486D02*
X0029871Y0138886D01*
X0019871Y0138886D02*
X0019871Y0131486D01*
D15*
X0063690Y0136800D03*
X0073690Y0136800D03*
X0083690Y0136800D03*
X0096485Y0136839D03*
X0106485Y0136839D03*
X0116485Y0136839D03*
X0137666Y0140028D03*
X0137666Y0130028D03*
D16*
X0138094Y0071296D02*
X0137428Y0071236D01*
X0136787Y0071048D01*
X0136194Y0070738D01*
X0135674Y0070318D01*
X0135245Y0069805D01*
X0134925Y0069219D01*
X0134725Y0068581D01*
X0134654Y0067916D01*
X0134644Y0067836D01*
X0134712Y0067163D01*
X0134910Y0066517D01*
X0135231Y0065921D01*
X0135662Y0065400D01*
X0136186Y0064972D01*
X0136783Y0064655D01*
X0137431Y0064461D01*
X0138104Y0064396D01*
X0138134Y0064376D01*
X0138795Y0064437D01*
X0139431Y0064624D01*
X0140019Y0064933D01*
X0140535Y0065350D01*
X0140959Y0065860D01*
X0141277Y0066443D01*
X0141474Y0067076D01*
X0141544Y0067736D01*
X0141564Y0067846D01*
X0141491Y0068523D01*
X0141288Y0069172D01*
X0140962Y0069769D01*
X0140526Y0070291D01*
X0139997Y0070718D01*
X0139394Y0071033D01*
X0138742Y0071225D01*
X0138064Y0071286D01*
X0138094Y0071296D01*
X0139087Y0071124D02*
X0137045Y0071124D01*
X0136055Y0070625D02*
X0140112Y0070625D01*
X0140663Y0070127D02*
X0135514Y0070127D01*
X0135149Y0069628D02*
X0141039Y0069628D01*
X0141301Y0069130D02*
X0134897Y0069130D01*
X0134741Y0068631D02*
X0141457Y0068631D01*
X0141533Y0068133D02*
X0134677Y0068133D01*
X0134665Y0067634D02*
X0141533Y0067634D01*
X0141480Y0067136D02*
X0134721Y0067136D01*
X0134874Y0066637D02*
X0141337Y0066637D01*
X0141111Y0066139D02*
X0135114Y0066139D01*
X0135463Y0065640D02*
X0140776Y0065640D01*
X0140277Y0065142D02*
X0135978Y0065142D01*
X0136823Y0064643D02*
X0139467Y0064643D01*
X0138094Y0053486D02*
X0137428Y0053426D01*
X0136787Y0053238D01*
X0136194Y0052928D01*
X0135674Y0052508D01*
X0135245Y0051995D01*
X0134925Y0051408D01*
X0134725Y0050771D01*
X0134654Y0050106D01*
X0134644Y0050026D01*
X0134712Y0049353D01*
X0134910Y0048707D01*
X0135231Y0048111D01*
X0135662Y0047589D01*
X0136186Y0047162D01*
X0136783Y0046845D01*
X0137431Y0046651D01*
X0138104Y0046586D01*
X0138134Y0046566D01*
X0138795Y0046626D01*
X0139431Y0046814D01*
X0140019Y0047123D01*
X0140535Y0047540D01*
X0140959Y0048050D01*
X0141277Y0048633D01*
X0141474Y0049266D01*
X0141544Y0049926D01*
X0141564Y0050036D01*
X0141491Y0050713D01*
X0141288Y0051362D01*
X0140962Y0051959D01*
X0140526Y0052481D01*
X0139997Y0052908D01*
X0139394Y0053223D01*
X0138742Y0053415D01*
X0138064Y0053476D01*
X0138094Y0053486D01*
X0139482Y0053177D02*
X0136672Y0053177D01*
X0135886Y0052679D02*
X0140280Y0052679D01*
X0140777Y0052180D02*
X0135400Y0052180D01*
X0135074Y0051682D02*
X0141113Y0051682D01*
X0141344Y0051183D02*
X0134855Y0051183D01*
X0134716Y0050685D02*
X0141494Y0050685D01*
X0141548Y0050186D02*
X0134663Y0050186D01*
X0134678Y0049688D02*
X0141518Y0049688D01*
X0141450Y0049189D02*
X0134762Y0049189D01*
X0134919Y0048691D02*
X0141295Y0048691D01*
X0141037Y0048192D02*
X0135187Y0048192D01*
X0135575Y0047694D02*
X0140663Y0047694D01*
X0140109Y0047195D02*
X0136145Y0047195D01*
X0137276Y0046697D02*
X0139034Y0046697D01*
X0137797Y0042564D02*
X0137119Y0042625D01*
X0137149Y0042635D01*
X0136483Y0042575D01*
X0135842Y0042386D01*
X0135249Y0042076D01*
X0134729Y0041657D01*
X0134300Y0041144D01*
X0133980Y0040557D01*
X0133780Y0039919D01*
X0133709Y0039255D01*
X0133699Y0039175D01*
X0133767Y0038502D01*
X0133966Y0037855D01*
X0134286Y0037260D01*
X0134717Y0036738D01*
X0135241Y0036311D01*
X0135838Y0035994D01*
X0136486Y0035799D01*
X0137159Y0035735D01*
X0137189Y0035715D01*
X0137850Y0035775D01*
X0138486Y0035963D01*
X0139074Y0036271D01*
X0139590Y0036689D01*
X0140015Y0037198D01*
X0140332Y0037781D01*
X0140529Y0038415D01*
X0140599Y0039075D01*
X0140619Y0039185D01*
X0140546Y0039861D01*
X0140343Y0040510D01*
X0140017Y0041108D01*
X0139581Y0041630D01*
X0139052Y0042057D01*
X0138449Y0042372D01*
X0137797Y0042564D01*
X0138758Y0042210D02*
X0135505Y0042210D01*
X0134797Y0041712D02*
X0139480Y0041712D01*
X0139929Y0041213D02*
X0134358Y0041213D01*
X0134066Y0040715D02*
X0140232Y0040715D01*
X0140435Y0040216D02*
X0133873Y0040216D01*
X0133759Y0039718D02*
X0140562Y0039718D01*
X0140615Y0039219D02*
X0133705Y0039219D01*
X0133745Y0038721D02*
X0140561Y0038721D01*
X0140469Y0038222D02*
X0133853Y0038222D01*
X0134036Y0037724D02*
X0140300Y0037724D01*
X0140029Y0037225D02*
X0134315Y0037225D01*
X0134731Y0036727D02*
X0139621Y0036727D01*
X0138991Y0036228D02*
X0135397Y0036228D01*
X0137167Y0035730D02*
X0137350Y0035730D01*
X0137149Y0024824D02*
X0136483Y0024765D01*
X0135842Y0024576D01*
X0135249Y0024266D01*
X0134729Y0023847D01*
X0134300Y0023334D01*
X0133980Y0022747D01*
X0133780Y0022109D01*
X0133709Y0021444D01*
X0133699Y0021365D01*
X0133767Y0020692D01*
X0133966Y0020045D01*
X0134286Y0019450D01*
X0134717Y0018928D01*
X0135241Y0018501D01*
X0135838Y0018184D01*
X0136486Y0017989D01*
X0137159Y0017925D01*
X0137189Y0017905D01*
X0137850Y0017965D01*
X0138486Y0018153D01*
X0139074Y0018461D01*
X0139590Y0018878D01*
X0140015Y0019388D01*
X0140332Y0019971D01*
X0140529Y0020605D01*
X0140599Y0021265D01*
X0140619Y0021375D01*
X0140546Y0022051D01*
X0140343Y0022700D01*
X0140017Y0023297D01*
X0139581Y0023819D01*
X0139052Y0024246D01*
X0138449Y0024562D01*
X0137797Y0024754D01*
X0137119Y0024815D01*
X0137149Y0024824D01*
X0137700Y0024762D02*
X0136475Y0024762D01*
X0135246Y0024264D02*
X0139018Y0024264D01*
X0139627Y0023765D02*
X0134661Y0023765D01*
X0134264Y0023267D02*
X0140034Y0023267D01*
X0140306Y0022768D02*
X0133992Y0022768D01*
X0133831Y0022270D02*
X0140478Y0022270D01*
X0140576Y0021771D02*
X0133744Y0021771D01*
X0133709Y0021273D02*
X0140600Y0021273D01*
X0140547Y0020774D02*
X0133759Y0020774D01*
X0133895Y0020276D02*
X0140427Y0020276D01*
X0140226Y0019777D02*
X0134110Y0019777D01*
X0134427Y0019279D02*
X0139923Y0019279D01*
X0139468Y0018780D02*
X0134898Y0018780D01*
X0135653Y0018282D02*
X0138732Y0018282D01*
X0115019Y0021365D02*
X0114946Y0022041D01*
X0114743Y0022690D01*
X0114417Y0023287D01*
X0113981Y0023810D01*
X0113452Y0024236D01*
X0112849Y0024552D01*
X0112197Y0024744D01*
X0111519Y0024805D01*
X0111549Y0024815D01*
X0110883Y0024755D01*
X0110242Y0024566D01*
X0109649Y0024256D01*
X0109129Y0023837D01*
X0108700Y0023324D01*
X0108380Y0022737D01*
X0108180Y0022099D01*
X0108109Y0021435D01*
X0108099Y0021355D01*
X0108167Y0020682D01*
X0108366Y0020035D01*
X0108686Y0019440D01*
X0109117Y0018918D01*
X0109641Y0018491D01*
X0110238Y0018174D01*
X0110886Y0017979D01*
X0111559Y0017915D01*
X0111589Y0017895D01*
X0112250Y0017955D01*
X0112886Y0018143D01*
X0113474Y0018451D01*
X0113990Y0018869D01*
X0114415Y0019378D01*
X0114732Y0019961D01*
X0114929Y0020595D01*
X0114999Y0021255D01*
X0115019Y0021365D01*
X0115002Y0021273D02*
X0108108Y0021273D01*
X0108145Y0021771D02*
X0114975Y0021771D01*
X0114875Y0022270D02*
X0108234Y0022270D01*
X0108397Y0022768D02*
X0114701Y0022768D01*
X0114429Y0023267D02*
X0108669Y0023267D01*
X0109069Y0023765D02*
X0114018Y0023765D01*
X0113400Y0024264D02*
X0109664Y0024264D01*
X0110967Y0024762D02*
X0111991Y0024762D01*
X0114948Y0020774D02*
X0108158Y0020774D01*
X0108292Y0020276D02*
X0114830Y0020276D01*
X0114632Y0019777D02*
X0108504Y0019777D01*
X0108819Y0019279D02*
X0114332Y0019279D01*
X0113881Y0018780D02*
X0109286Y0018780D01*
X0110035Y0018282D02*
X0113151Y0018282D01*
X0111569Y0035725D02*
X0112230Y0035785D01*
X0112866Y0035973D01*
X0113454Y0036281D01*
X0113970Y0036698D01*
X0114394Y0037208D01*
X0114712Y0037791D01*
X0114909Y0038425D01*
X0114979Y0039085D01*
X0114999Y0039195D01*
X0114926Y0039871D01*
X0114723Y0040520D01*
X0114397Y0041117D01*
X0113961Y0041639D01*
X0113432Y0042066D01*
X0112829Y0042382D01*
X0112177Y0042574D01*
X0111499Y0042635D01*
X0111529Y0042644D01*
X0110863Y0042585D01*
X0110222Y0042396D01*
X0109629Y0042086D01*
X0109109Y0041667D01*
X0108680Y0041154D01*
X0108360Y0040567D01*
X0108160Y0039929D01*
X0108089Y0039265D01*
X0108079Y0039185D01*
X0108147Y0038512D01*
X0108346Y0037865D01*
X0108666Y0037270D01*
X0109097Y0036748D01*
X0109621Y0036321D01*
X0110218Y0036004D01*
X0110866Y0035809D01*
X0111539Y0035745D01*
X0111569Y0035725D01*
X0111562Y0035730D02*
X0111622Y0035730D01*
X0113352Y0036228D02*
X0109795Y0036228D01*
X0109123Y0036727D02*
X0113993Y0036727D01*
X0114404Y0037225D02*
X0108703Y0037225D01*
X0108422Y0037724D02*
X0114675Y0037724D01*
X0114846Y0038222D02*
X0108236Y0038222D01*
X0108126Y0038721D02*
X0114940Y0038721D01*
X0114996Y0039219D02*
X0108083Y0039219D01*
X0108138Y0039718D02*
X0114943Y0039718D01*
X0114818Y0040216D02*
X0108250Y0040216D01*
X0108441Y0040715D02*
X0114617Y0040715D01*
X0114317Y0041213D02*
X0108730Y0041213D01*
X0109165Y0041712D02*
X0113872Y0041712D01*
X0113157Y0042210D02*
X0109866Y0042210D01*
X0111183Y0046835D02*
X0111831Y0046641D01*
X0112504Y0046576D01*
X0112534Y0046556D01*
X0113195Y0046616D01*
X0113831Y0046804D01*
X0114419Y0047113D01*
X0114935Y0047530D01*
X0115359Y0048040D01*
X0115677Y0048623D01*
X0115874Y0049256D01*
X0115944Y0049916D01*
X0115964Y0050026D01*
X0115891Y0050703D01*
X0115688Y0051352D01*
X0115362Y0051949D01*
X0114926Y0052471D01*
X0114397Y0052898D01*
X0113794Y0053213D01*
X0113142Y0053405D01*
X0112464Y0053466D01*
X0112494Y0053476D01*
X0111828Y0053416D01*
X0111187Y0053228D01*
X0110594Y0052918D01*
X0110074Y0052498D01*
X0109645Y0051985D01*
X0109325Y0051399D01*
X0109125Y0050761D01*
X0109054Y0050096D01*
X0109044Y0050016D01*
X0109112Y0049343D01*
X0109310Y0048697D01*
X0109631Y0048101D01*
X0110062Y0047580D01*
X0110586Y0047152D01*
X0111183Y0046835D01*
X0111644Y0046697D02*
X0113467Y0046697D01*
X0114521Y0047195D02*
X0110533Y0047195D01*
X0109967Y0047694D02*
X0115071Y0047694D01*
X0115442Y0048192D02*
X0109582Y0048192D01*
X0109314Y0048691D02*
X0115698Y0048691D01*
X0115853Y0049189D02*
X0109159Y0049189D01*
X0109077Y0049688D02*
X0115920Y0049688D01*
X0115947Y0050186D02*
X0109064Y0050186D01*
X0109117Y0050685D02*
X0115893Y0050685D01*
X0115741Y0051183D02*
X0109258Y0051183D01*
X0109480Y0051682D02*
X0115508Y0051682D01*
X0115169Y0052180D02*
X0109808Y0052180D01*
X0110298Y0052679D02*
X0114668Y0052679D01*
X0113863Y0053177D02*
X0111091Y0053177D01*
X0112514Y0064386D02*
X0113175Y0064446D01*
X0113811Y0064634D01*
X0114399Y0064943D01*
X0114915Y0065360D01*
X0115339Y0065870D01*
X0115656Y0066453D01*
X0115854Y0067086D01*
X0115924Y0067746D01*
X0115944Y0067856D01*
X0115871Y0068533D01*
X0115668Y0069182D01*
X0115342Y0069779D01*
X0114906Y0070301D01*
X0114377Y0070728D01*
X0113774Y0071043D01*
X0113122Y0071235D01*
X0112444Y0071296D01*
X0112474Y0071306D01*
X0111808Y0071246D01*
X0111167Y0071058D01*
X0110574Y0070748D01*
X0110054Y0070328D01*
X0109625Y0069815D01*
X0109305Y0069229D01*
X0109105Y0068591D01*
X0109034Y0067926D01*
X0109024Y0067846D01*
X0109092Y0067173D01*
X0109290Y0066527D01*
X0109611Y0065931D01*
X0110041Y0065410D01*
X0110566Y0064982D01*
X0111163Y0064665D01*
X0111811Y0064471D01*
X0112484Y0064406D01*
X0112514Y0064386D01*
X0111235Y0064643D02*
X0113828Y0064643D01*
X0114645Y0065142D02*
X0110370Y0065142D01*
X0109851Y0065640D02*
X0115148Y0065640D01*
X0115486Y0066139D02*
X0109499Y0066139D01*
X0109256Y0066637D02*
X0115714Y0066637D01*
X0115859Y0067136D02*
X0109104Y0067136D01*
X0109045Y0067634D02*
X0115912Y0067634D01*
X0115914Y0068133D02*
X0109056Y0068133D01*
X0109118Y0068631D02*
X0115840Y0068631D01*
X0115684Y0069130D02*
X0109274Y0069130D01*
X0109523Y0069628D02*
X0115424Y0069628D01*
X0115052Y0070127D02*
X0109886Y0070127D01*
X0110422Y0070625D02*
X0114504Y0070625D01*
X0113500Y0071124D02*
X0111392Y0071124D01*
D17*
X0062509Y0097391D03*
X0062509Y0111957D03*
D18*
X0045461Y0106721D03*
X0045461Y0100028D03*
M02*
