G75*
%MOIN*%
%OFA0B0*%
%FSLAX25Y25*%
%IPPOS*%
%LPD*%
%AMOC8*
5,1,8,0,0,1.08239X$1,22.5*
%
%ADD10C,0.00000*%
%ADD11C,0.07400*%
%ADD12R,0.07874X0.04724*%
%ADD13R,0.04724X0.07874*%
%ADD14C,0.07400*%
%ADD15R,0.03937X0.04331*%
%ADD16C,0.01600*%
%ADD17C,0.03562*%
%ADD18C,0.03200*%
%ADD19C,0.02400*%
%ADD20C,0.03600*%
D10*
X0010658Y0015028D02*
X0010619Y0152587D01*
X0147942Y0152587D01*
X0147942Y0014871D01*
X0010658Y0015028D01*
D11*
X0019871Y0131486D02*
X0019871Y0138886D01*
X0029871Y0138886D02*
X0029871Y0131486D01*
X0039871Y0131486D02*
X0039871Y0138886D01*
X0049871Y0138886D02*
X0049871Y0131486D01*
X0134557Y0111918D02*
X0141957Y0111918D01*
X0141957Y0101918D02*
X0134557Y0101918D01*
X0134557Y0091918D02*
X0141957Y0091918D01*
X0141957Y0081918D02*
X0134557Y0081918D01*
D12*
X0093572Y0081328D03*
X0093572Y0089202D03*
X0093572Y0097076D03*
X0093572Y0104950D03*
X0093572Y0073454D03*
X0093572Y0065580D03*
X0093572Y0057706D03*
X0093572Y0049831D03*
X0029792Y0049831D03*
X0029792Y0057706D03*
X0029792Y0065580D03*
X0029792Y0073454D03*
X0029792Y0081328D03*
X0029792Y0089202D03*
X0029792Y0097076D03*
X0029792Y0104950D03*
D13*
X0042391Y0112824D03*
X0050265Y0112824D03*
X0058139Y0112824D03*
X0066013Y0112824D03*
X0073887Y0112824D03*
X0081761Y0112824D03*
D14*
X0083690Y0136800D03*
X0073690Y0136800D03*
X0063690Y0136800D03*
X0096485Y0136839D03*
X0106485Y0136839D03*
X0116485Y0136839D03*
X0137666Y0140028D03*
X0137666Y0130028D03*
X0138104Y0067826D03*
X0138104Y0050026D03*
X0137159Y0039165D03*
X0137159Y0021365D03*
X0111559Y0021365D03*
X0111559Y0039165D03*
X0112504Y0050026D03*
X0112504Y0067826D03*
D15*
X0112784Y0077194D03*
X0112784Y0083887D03*
X0104910Y0083887D03*
X0104910Y0077194D03*
X0115383Y0095265D03*
X0115383Y0101957D03*
X0108257Y0113729D03*
X0108257Y0120422D03*
X0098375Y0120737D03*
X0098375Y0114044D03*
D16*
X0097222Y0114192D01*
X0094422Y0114192D01*
X0093022Y0112792D01*
X0090354Y0115498D02*
X0086123Y0115498D01*
X0086123Y0113900D02*
X0089368Y0113900D01*
X0089222Y0113548D02*
X0089222Y0112036D01*
X0089801Y0110640D01*
X0090870Y0109571D01*
X0091494Y0109312D01*
X0088806Y0109312D01*
X0087704Y0108210D01*
X0087202Y0108002D01*
X0086189Y0106989D01*
X0086189Y0106989D01*
X0084852Y0105652D01*
X0084146Y0105360D01*
X0083083Y0104296D01*
X0082507Y0102906D01*
X0082507Y0101402D01*
X0083083Y0100012D01*
X0084146Y0098949D01*
X0085536Y0098373D01*
X0087040Y0098373D01*
X0087635Y0098619D01*
X0087635Y0093885D01*
X0088381Y0093139D01*
X0087635Y0092392D01*
X0087635Y0088061D01*
X0087158Y0088258D01*
X0085654Y0088258D01*
X0084264Y0087683D01*
X0083201Y0086619D01*
X0082625Y0085229D01*
X0082625Y0083725D01*
X0083201Y0082335D01*
X0084264Y0081272D01*
X0085654Y0080696D01*
X0086228Y0080696D01*
X0087635Y0079289D01*
X0087635Y0078437D01*
X0086778Y0078792D01*
X0085266Y0078792D01*
X0083870Y0078214D01*
X0082801Y0077145D01*
X0082222Y0075748D01*
X0082222Y0074236D01*
X0082801Y0072840D01*
X0083870Y0071771D01*
X0085266Y0071192D01*
X0085899Y0071192D01*
X0086865Y0070792D01*
X0087635Y0070792D01*
X0087635Y0070263D01*
X0088381Y0069517D01*
X0087635Y0068770D01*
X0087635Y0066154D01*
X0086775Y0067014D01*
X0085378Y0067592D01*
X0083866Y0067592D01*
X0082470Y0067014D01*
X0082048Y0066592D01*
X0054708Y0066592D01*
X0038386Y0082914D01*
X0037599Y0083701D01*
X0036570Y0084128D01*
X0035729Y0084128D01*
X0035729Y0084518D01*
X0034983Y0085265D01*
X0035729Y0086011D01*
X0035729Y0086927D01*
X0037766Y0088964D01*
X0038340Y0088964D01*
X0039729Y0089539D01*
X0040793Y0090603D01*
X0041368Y0091993D01*
X0041368Y0093497D01*
X0040793Y0094887D01*
X0039982Y0095698D01*
X0040793Y0096509D01*
X0041368Y0097898D01*
X0041368Y0099402D01*
X0040793Y0100792D01*
X0040433Y0101153D01*
X0040910Y0101350D01*
X0041974Y0102414D01*
X0042550Y0103804D01*
X0042550Y0105308D01*
X0041974Y0106698D01*
X0041785Y0106887D01*
X0045581Y0106887D01*
X0046328Y0107633D01*
X0047074Y0106887D01*
X0053455Y0106887D01*
X0054202Y0107633D01*
X0054948Y0106887D01*
X0061329Y0106887D01*
X0062076Y0107633D01*
X0062822Y0106887D01*
X0069203Y0106887D01*
X0069950Y0107633D01*
X0070696Y0106887D01*
X0077077Y0106887D01*
X0077824Y0107633D01*
X0078570Y0106887D01*
X0084951Y0106887D01*
X0086123Y0108058D01*
X0086123Y0117589D01*
X0084951Y0118761D01*
X0078570Y0118761D01*
X0077824Y0118014D01*
X0077077Y0118761D01*
X0070696Y0118761D01*
X0069950Y0118014D01*
X0069203Y0118761D01*
X0062822Y0118761D01*
X0062076Y0118014D01*
X0061329Y0118761D01*
X0059895Y0118761D01*
X0060872Y0119737D01*
X0061447Y0121127D01*
X0061447Y0122631D01*
X0060872Y0124021D01*
X0059808Y0125084D01*
X0058418Y0125660D01*
X0056914Y0125660D01*
X0055524Y0125084D01*
X0054461Y0124021D01*
X0054410Y0123898D01*
X0046034Y0123898D01*
X0046028Y0123903D01*
X0044639Y0124479D01*
X0043134Y0124479D01*
X0041745Y0123903D01*
X0040681Y0122839D01*
X0040106Y0121450D01*
X0040106Y0119946D01*
X0040596Y0118761D01*
X0039200Y0118761D01*
X0038028Y0117589D01*
X0038028Y0108337D01*
X0038016Y0108337D01*
X0036627Y0107761D01*
X0036621Y0107756D01*
X0035729Y0107756D01*
X0035729Y0108140D01*
X0034558Y0109312D01*
X0032907Y0109312D01*
X0032907Y0117317D01*
X0041638Y0126048D01*
X0043100Y0126654D01*
X0044703Y0128257D01*
X0044871Y0128662D01*
X0045039Y0128257D01*
X0046642Y0126654D01*
X0048737Y0125786D01*
X0051005Y0125786D01*
X0053100Y0126654D01*
X0054703Y0128257D01*
X0055571Y0130352D01*
X0055571Y0140020D01*
X0054703Y0142115D01*
X0053100Y0143718D01*
X0051005Y0144586D01*
X0048737Y0144586D01*
X0046642Y0143718D01*
X0045039Y0142115D01*
X0044871Y0141710D01*
X0044703Y0142115D01*
X0043100Y0143718D01*
X0041005Y0144586D01*
X0038737Y0144586D01*
X0036642Y0143718D01*
X0035039Y0142115D01*
X0034871Y0141710D01*
X0034703Y0142115D01*
X0033100Y0143718D01*
X0031005Y0144586D01*
X0028737Y0144586D01*
X0026642Y0143718D01*
X0025039Y0142115D01*
X0024871Y0141710D01*
X0024703Y0142115D01*
X0023100Y0143718D01*
X0021005Y0144586D01*
X0018737Y0144586D01*
X0016642Y0143718D01*
X0015039Y0142115D01*
X0014171Y0140020D01*
X0014171Y0130352D01*
X0015039Y0128257D01*
X0016642Y0126654D01*
X0017071Y0126476D01*
X0017071Y0125794D01*
X0012428Y0121151D01*
X0012419Y0150787D01*
X0146142Y0150787D01*
X0146142Y0115794D01*
X0145185Y0116750D01*
X0143090Y0117618D01*
X0133423Y0117618D01*
X0131328Y0116750D01*
X0129724Y0115147D01*
X0128857Y0113052D01*
X0128857Y0110784D01*
X0129724Y0108689D01*
X0131328Y0107086D01*
X0131733Y0106918D01*
X0131328Y0106750D01*
X0129724Y0105147D01*
X0129269Y0104048D01*
X0128706Y0104612D01*
X0128268Y0104793D01*
X0128052Y0105009D01*
X0126729Y0105557D01*
X0118745Y0105557D01*
X0118180Y0106123D01*
X0112586Y0106123D01*
X0112020Y0105557D01*
X0108503Y0105557D01*
X0108903Y0105957D01*
X0109479Y0107347D01*
X0109479Y0107921D01*
X0109843Y0108285D01*
X0110630Y0109072D01*
X0110834Y0109564D01*
X0111054Y0109564D01*
X0112225Y0110735D01*
X0112225Y0116723D01*
X0111873Y0117076D01*
X0112225Y0117428D01*
X0112225Y0123416D01*
X0111054Y0124587D01*
X0110996Y0124587D01*
X0110796Y0125071D01*
X0105676Y0130191D01*
X0104888Y0130978D01*
X0103859Y0131405D01*
X0097330Y0131405D01*
X0097773Y0131475D01*
X0098596Y0131742D01*
X0099368Y0132135D01*
X0100068Y0132644D01*
X0100680Y0133256D01*
X0101189Y0133957D01*
X0101366Y0134304D01*
X0101653Y0133611D01*
X0103256Y0132007D01*
X0105351Y0131139D01*
X0107619Y0131139D01*
X0109714Y0132007D01*
X0111317Y0133611D01*
X0111485Y0134016D01*
X0111653Y0133611D01*
X0113256Y0132007D01*
X0115351Y0131139D01*
X0117619Y0131139D01*
X0119714Y0132007D01*
X0121317Y0133611D01*
X0122185Y0135706D01*
X0122185Y0137973D01*
X0121317Y0140068D01*
X0119714Y0141672D01*
X0117619Y0142539D01*
X0115351Y0142539D01*
X0113256Y0141672D01*
X0111653Y0140068D01*
X0111485Y0139663D01*
X0111317Y0140068D01*
X0109714Y0141672D01*
X0107619Y0142539D01*
X0105351Y0142539D01*
X0103256Y0141672D01*
X0101653Y0140068D01*
X0101366Y0139375D01*
X0101189Y0139722D01*
X0100680Y0140422D01*
X0100068Y0141035D01*
X0099368Y0141543D01*
X0098596Y0141936D01*
X0097773Y0142204D01*
X0096918Y0142339D01*
X0096685Y0142339D01*
X0096685Y0137039D01*
X0096285Y0137039D01*
X0096285Y0136639D01*
X0090985Y0136639D01*
X0090985Y0136406D01*
X0091120Y0135551D01*
X0091388Y0134728D01*
X0091781Y0133957D01*
X0092290Y0133256D01*
X0092902Y0132644D01*
X0093602Y0132135D01*
X0094374Y0131742D01*
X0095197Y0131475D01*
X0095640Y0131405D01*
X0085559Y0131405D01*
X0086919Y0131968D01*
X0088522Y0133571D01*
X0089390Y0135666D01*
X0089390Y0137934D01*
X0088522Y0140029D01*
X0086919Y0141632D01*
X0084824Y0142500D01*
X0082556Y0142500D01*
X0080461Y0141632D01*
X0078858Y0140029D01*
X0078690Y0139624D01*
X0078522Y0140029D01*
X0076919Y0141632D01*
X0074824Y0142500D01*
X0072556Y0142500D01*
X0070461Y0141632D01*
X0068858Y0140029D01*
X0068690Y0139624D01*
X0068522Y0140029D01*
X0066919Y0141632D01*
X0064824Y0142500D01*
X0062556Y0142500D01*
X0060461Y0141632D01*
X0058858Y0140029D01*
X0057990Y0137934D01*
X0057990Y0135666D01*
X0058858Y0133571D01*
X0060461Y0131968D01*
X0060822Y0131818D01*
X0060822Y0130327D01*
X0061248Y0129297D01*
X0067497Y0123048D01*
X0068527Y0122622D01*
X0091832Y0122622D01*
X0094406Y0120048D01*
X0094406Y0117743D01*
X0094759Y0117391D01*
X0094406Y0117038D01*
X0094406Y0116992D01*
X0093865Y0116992D01*
X0092899Y0116592D01*
X0092266Y0116592D01*
X0090870Y0116014D01*
X0089801Y0114945D01*
X0089222Y0113548D01*
X0089222Y0112301D02*
X0086123Y0112301D01*
X0086123Y0110703D02*
X0089774Y0110703D01*
X0088599Y0109104D02*
X0086123Y0109104D01*
X0085570Y0107506D02*
X0086706Y0107506D01*
X0085107Y0105907D02*
X0042301Y0105907D01*
X0042550Y0104309D02*
X0083095Y0104309D01*
X0082507Y0102710D02*
X0042097Y0102710D01*
X0040473Y0101112D02*
X0082627Y0101112D01*
X0083582Y0099513D02*
X0041323Y0099513D01*
X0041368Y0097915D02*
X0087635Y0097915D01*
X0087635Y0096316D02*
X0040600Y0096316D01*
X0040863Y0094718D02*
X0087635Y0094718D01*
X0088362Y0093119D02*
X0041368Y0093119D01*
X0041173Y0091521D02*
X0087635Y0091521D01*
X0087635Y0089922D02*
X0040112Y0089922D01*
X0037126Y0088324D02*
X0087635Y0088324D01*
X0086406Y0084477D02*
X0089556Y0081328D01*
X0093572Y0081328D01*
X0087635Y0078733D02*
X0086922Y0078733D01*
X0086593Y0080331D02*
X0040969Y0080331D01*
X0042567Y0078733D02*
X0085122Y0078733D01*
X0082796Y0077134D02*
X0044166Y0077134D01*
X0045764Y0075536D02*
X0082222Y0075536D01*
X0082346Y0073937D02*
X0047363Y0073937D01*
X0048961Y0072339D02*
X0083302Y0072339D01*
X0086022Y0074992D02*
X0087422Y0073592D01*
X0093022Y0073592D01*
X0093572Y0073454D01*
X0087635Y0070740D02*
X0050560Y0070740D01*
X0052158Y0069142D02*
X0088006Y0069142D01*
X0087635Y0067543D02*
X0085496Y0067543D01*
X0083748Y0067543D02*
X0053757Y0067543D01*
X0053548Y0063792D02*
X0036013Y0081328D01*
X0029792Y0081328D01*
X0030022Y0081992D01*
X0035121Y0085127D02*
X0082625Y0085127D01*
X0082707Y0083528D02*
X0037772Y0083528D01*
X0039370Y0081930D02*
X0083607Y0081930D01*
X0083307Y0086725D02*
X0035729Y0086725D01*
X0034044Y0089202D02*
X0037587Y0092745D01*
X0036013Y0097076D02*
X0037587Y0098650D01*
X0036013Y0097076D02*
X0029792Y0097076D01*
X0029792Y0089202D02*
X0034044Y0089202D01*
X0029792Y0104950D02*
X0030022Y0105792D01*
X0030107Y0105343D02*
X0030107Y0118477D01*
X0039822Y0128192D01*
X0039822Y0133792D01*
X0039871Y0135186D01*
X0044715Y0128286D02*
X0045026Y0128286D01*
X0046608Y0126688D02*
X0043134Y0126688D01*
X0040679Y0125089D02*
X0055537Y0125089D01*
X0053134Y0126688D02*
X0063858Y0126688D01*
X0065456Y0125089D02*
X0059795Y0125089D01*
X0061091Y0123491D02*
X0067055Y0123491D01*
X0069083Y0125422D02*
X0063622Y0130883D01*
X0063622Y0136592D01*
X0063690Y0136800D01*
X0059347Y0133082D02*
X0055571Y0133082D01*
X0055571Y0134680D02*
X0058398Y0134680D01*
X0057990Y0136279D02*
X0055571Y0136279D01*
X0055571Y0137877D02*
X0057990Y0137877D01*
X0058629Y0139476D02*
X0055571Y0139476D01*
X0055134Y0141075D02*
X0059903Y0141075D01*
X0054145Y0142673D02*
X0132592Y0142673D01*
X0132834Y0143257D02*
X0131966Y0141162D01*
X0131966Y0138895D01*
X0132834Y0136800D01*
X0134437Y0135196D01*
X0135130Y0134909D01*
X0134784Y0134732D01*
X0134083Y0134223D01*
X0133471Y0133611D01*
X0132962Y0132911D01*
X0132569Y0132140D01*
X0132302Y0131316D01*
X0132166Y0130461D01*
X0132166Y0130228D01*
X0137466Y0130228D01*
X0137466Y0129828D01*
X0137866Y0129828D01*
X0137866Y0124528D01*
X0138099Y0124528D01*
X0138954Y0124664D01*
X0139777Y0124931D01*
X0140549Y0125324D01*
X0141249Y0125833D01*
X0141861Y0126445D01*
X0142370Y0127146D01*
X0142763Y0127917D01*
X0143031Y0128740D01*
X0143166Y0129595D01*
X0143166Y0129828D01*
X0137866Y0129828D01*
X0137866Y0130228D01*
X0143166Y0130228D01*
X0143166Y0130461D01*
X0143031Y0131316D01*
X0142763Y0132140D01*
X0142370Y0132911D01*
X0141861Y0133611D01*
X0141249Y0134223D01*
X0140549Y0134732D01*
X0140202Y0134909D01*
X0140895Y0135196D01*
X0142498Y0136800D01*
X0143366Y0138895D01*
X0143366Y0141162D01*
X0142498Y0143257D01*
X0140895Y0144861D01*
X0138800Y0145728D01*
X0136532Y0145728D01*
X0134437Y0144861D01*
X0132834Y0143257D01*
X0133848Y0144272D02*
X0051763Y0144272D01*
X0047978Y0144272D02*
X0041763Y0144272D01*
X0044145Y0142673D02*
X0045597Y0142673D01*
X0037978Y0144272D02*
X0031763Y0144272D01*
X0034145Y0142673D02*
X0035597Y0142673D01*
X0027978Y0144272D02*
X0021763Y0144272D01*
X0024145Y0142673D02*
X0025597Y0142673D01*
X0017978Y0144272D02*
X0012421Y0144272D01*
X0012421Y0145870D02*
X0146142Y0145870D01*
X0146142Y0144272D02*
X0141484Y0144272D01*
X0142740Y0142673D02*
X0146142Y0142673D01*
X0146142Y0141075D02*
X0143366Y0141075D01*
X0143366Y0139476D02*
X0146142Y0139476D01*
X0146142Y0137877D02*
X0142945Y0137877D01*
X0141978Y0136279D02*
X0146142Y0136279D01*
X0146142Y0134680D02*
X0140620Y0134680D01*
X0142246Y0133082D02*
X0146142Y0133082D01*
X0146142Y0131483D02*
X0142976Y0131483D01*
X0142883Y0128286D02*
X0146142Y0128286D01*
X0146142Y0126688D02*
X0142038Y0126688D01*
X0140088Y0125089D02*
X0146142Y0125089D01*
X0146142Y0123491D02*
X0112150Y0123491D01*
X0112225Y0121892D02*
X0146142Y0121892D01*
X0146142Y0120294D02*
X0112225Y0120294D01*
X0112225Y0118695D02*
X0146142Y0118695D01*
X0146142Y0117097D02*
X0144349Y0117097D01*
X0137466Y0124528D02*
X0137466Y0129828D01*
X0132166Y0129828D01*
X0132166Y0129595D01*
X0132302Y0128740D01*
X0132569Y0127917D01*
X0132962Y0127146D01*
X0133471Y0126445D01*
X0134083Y0125833D01*
X0134784Y0125324D01*
X0135555Y0124931D01*
X0136378Y0124664D01*
X0137233Y0124528D01*
X0137466Y0124528D01*
X0137466Y0125089D02*
X0137866Y0125089D01*
X0137866Y0126688D02*
X0137466Y0126688D01*
X0137466Y0128286D02*
X0137866Y0128286D01*
X0137866Y0129885D02*
X0146142Y0129885D01*
X0137466Y0129885D02*
X0105982Y0129885D01*
X0104521Y0131483D02*
X0097800Y0131483D01*
X0100506Y0133082D02*
X0102181Y0133082D01*
X0103302Y0128605D02*
X0075809Y0128605D01*
X0073422Y0130992D01*
X0073422Y0136592D01*
X0073690Y0136800D01*
X0077476Y0141075D02*
X0079903Y0141075D01*
X0087476Y0141075D02*
X0092957Y0141075D01*
X0092902Y0141035D02*
X0092290Y0140422D01*
X0091781Y0139722D01*
X0091388Y0138951D01*
X0091120Y0138127D01*
X0090985Y0137272D01*
X0090985Y0137039D01*
X0096285Y0137039D01*
X0096285Y0142339D01*
X0096052Y0142339D01*
X0095197Y0142204D01*
X0094374Y0141936D01*
X0093602Y0141543D01*
X0092902Y0141035D01*
X0091656Y0139476D02*
X0088751Y0139476D01*
X0089390Y0137877D02*
X0091081Y0137877D01*
X0091005Y0136279D02*
X0089390Y0136279D01*
X0088981Y0134680D02*
X0091412Y0134680D01*
X0092464Y0133082D02*
X0088033Y0133082D01*
X0085749Y0131483D02*
X0095170Y0131483D01*
X0092992Y0125422D02*
X0069083Y0125422D01*
X0069268Y0118695D02*
X0070631Y0118695D01*
X0077142Y0118695D02*
X0078505Y0118695D01*
X0085017Y0118695D02*
X0094406Y0118695D01*
X0094465Y0117097D02*
X0086123Y0117097D01*
X0092562Y0121892D02*
X0061447Y0121892D01*
X0061102Y0120294D02*
X0094160Y0120294D01*
X0097222Y0121192D02*
X0092992Y0125422D01*
X0097222Y0121192D02*
X0098375Y0120737D01*
X0103302Y0128605D02*
X0108422Y0123485D01*
X0108422Y0121192D01*
X0108257Y0120422D01*
X0111894Y0117097D02*
X0132164Y0117097D01*
X0130076Y0115498D02*
X0112225Y0115498D01*
X0112225Y0113900D02*
X0117962Y0113900D01*
X0117453Y0113391D02*
X0116877Y0112001D01*
X0116877Y0110497D01*
X0117453Y0109107D01*
X0118516Y0108043D01*
X0119906Y0107468D01*
X0121410Y0107468D01*
X0122800Y0108043D01*
X0123864Y0109107D01*
X0124439Y0110497D01*
X0124439Y0112001D01*
X0123864Y0113391D01*
X0122800Y0114454D01*
X0121410Y0115030D01*
X0119906Y0115030D01*
X0118516Y0114454D01*
X0117453Y0113391D01*
X0117002Y0112301D02*
X0112225Y0112301D01*
X0112193Y0110703D02*
X0116877Y0110703D01*
X0117455Y0109104D02*
X0110644Y0109104D01*
X0109843Y0108285D02*
X0109843Y0108285D01*
X0109479Y0107506D02*
X0119814Y0107506D01*
X0121502Y0107506D02*
X0130908Y0107506D01*
X0130485Y0105907D02*
X0118395Y0105907D01*
X0120658Y0111249D02*
X0121328Y0111918D01*
X0123355Y0113900D02*
X0129208Y0113900D01*
X0128857Y0112301D02*
X0124315Y0112301D01*
X0124439Y0110703D02*
X0128890Y0110703D01*
X0129553Y0109104D02*
X0123861Y0109104D01*
X0129009Y0104309D02*
X0129377Y0104309D01*
X0137822Y0091792D02*
X0135231Y0089202D01*
X0109320Y0089202D01*
X0115383Y0095265D01*
X0109320Y0089202D02*
X0108847Y0089202D01*
X0093572Y0089202D01*
X0093572Y0097076D02*
X0104910Y0097076D01*
X0105304Y0096682D01*
X0108853Y0105907D02*
X0112370Y0105907D01*
X0108257Y0110658D02*
X0108257Y0113729D01*
X0108257Y0110658D02*
X0105698Y0108099D01*
X0110777Y0125089D02*
X0135245Y0125089D01*
X0133295Y0126688D02*
X0109179Y0126688D01*
X0107580Y0128286D02*
X0132449Y0128286D01*
X0132356Y0131483D02*
X0118450Y0131483D01*
X0120789Y0133082D02*
X0133086Y0133082D01*
X0134712Y0134680D02*
X0121760Y0134680D01*
X0122185Y0136279D02*
X0133354Y0136279D01*
X0132387Y0137877D02*
X0122185Y0137877D01*
X0121563Y0139476D02*
X0131966Y0139476D01*
X0131966Y0141075D02*
X0120311Y0141075D01*
X0112659Y0141075D02*
X0110311Y0141075D01*
X0102659Y0141075D02*
X0100013Y0141075D01*
X0101314Y0139476D02*
X0101408Y0139476D01*
X0096685Y0139476D02*
X0096285Y0139476D01*
X0096285Y0137877D02*
X0096685Y0137877D01*
X0096685Y0141075D02*
X0096285Y0141075D01*
X0108450Y0131483D02*
X0114521Y0131483D01*
X0112181Y0133082D02*
X0110789Y0133082D01*
X0086288Y0102154D02*
X0086328Y0102076D01*
X0086367Y0102076D01*
X0077951Y0107506D02*
X0077696Y0107506D01*
X0070077Y0107506D02*
X0069822Y0107506D01*
X0062203Y0107506D02*
X0061948Y0107506D01*
X0054329Y0107506D02*
X0054074Y0107506D01*
X0046455Y0107506D02*
X0046200Y0107506D01*
X0038028Y0109104D02*
X0034765Y0109104D01*
X0032907Y0110703D02*
X0038028Y0110703D01*
X0038028Y0112301D02*
X0032907Y0112301D01*
X0032907Y0113900D02*
X0038028Y0113900D01*
X0038028Y0115498D02*
X0032907Y0115498D01*
X0032907Y0117097D02*
X0038028Y0117097D01*
X0039135Y0118695D02*
X0034285Y0118695D01*
X0035884Y0120294D02*
X0040106Y0120294D01*
X0040289Y0121892D02*
X0037482Y0121892D01*
X0039081Y0123491D02*
X0041333Y0123491D01*
X0028532Y0125422D02*
X0028532Y0128102D01*
X0028622Y0128192D01*
X0028622Y0133792D01*
X0029871Y0135186D01*
X0020222Y0133792D02*
X0019871Y0135186D01*
X0019871Y0124635D01*
X0014359Y0119123D01*
X0014359Y0058455D01*
X0023022Y0049792D01*
X0028622Y0049792D01*
X0029792Y0049831D01*
X0029792Y0057706D02*
X0028622Y0058192D01*
X0021622Y0058192D01*
X0017902Y0061912D01*
X0017902Y0114792D01*
X0028532Y0125422D01*
X0016608Y0126688D02*
X0012426Y0126688D01*
X0012426Y0128286D02*
X0015026Y0128286D01*
X0014364Y0129885D02*
X0012425Y0129885D01*
X0012425Y0131483D02*
X0014171Y0131483D01*
X0014171Y0133082D02*
X0012424Y0133082D01*
X0012424Y0134680D02*
X0014171Y0134680D01*
X0014171Y0136279D02*
X0012424Y0136279D01*
X0012423Y0137877D02*
X0014171Y0137877D01*
X0014171Y0139476D02*
X0012423Y0139476D01*
X0012422Y0141075D02*
X0014608Y0141075D01*
X0015597Y0142673D02*
X0012422Y0142673D01*
X0012420Y0147469D02*
X0146142Y0147469D01*
X0146142Y0149067D02*
X0012420Y0149067D01*
X0012419Y0150666D02*
X0146142Y0150666D01*
X0138257Y0091918D02*
X0137822Y0091792D01*
X0138257Y0081918D02*
X0138060Y0081721D01*
X0124595Y0081721D01*
X0122430Y0083887D01*
X0112784Y0083887D01*
X0104910Y0083887D01*
X0104910Y0077194D02*
X0104910Y0070698D01*
X0099792Y0065580D01*
X0093572Y0065580D01*
X0084622Y0063792D02*
X0067509Y0063792D01*
X0063753Y0063792D01*
X0050186Y0050225D01*
X0037981Y0059280D02*
X0037981Y0069517D01*
X0053548Y0063792D02*
X0063753Y0063792D01*
X0093572Y0049831D02*
X0094422Y0049792D01*
X0101721Y0049792D01*
X0112622Y0060693D01*
X0112622Y0066592D01*
X0112504Y0067826D01*
X0112784Y0068106D01*
X0112784Y0077194D01*
X0062757Y0118695D02*
X0061394Y0118695D01*
X0062259Y0128286D02*
X0054715Y0128286D01*
X0055377Y0129885D02*
X0061005Y0129885D01*
X0060822Y0131483D02*
X0055571Y0131483D01*
X0067476Y0141075D02*
X0069903Y0141075D01*
X0016366Y0125089D02*
X0012427Y0125089D01*
X0012427Y0123491D02*
X0014767Y0123491D01*
X0013169Y0121892D02*
X0012428Y0121892D01*
D17*
X0037587Y0098650D03*
X0037587Y0092745D03*
X0040343Y0085580D03*
X0037981Y0069517D03*
X0037981Y0059280D03*
X0050186Y0050225D03*
X0022233Y0077391D03*
X0038769Y0104556D03*
X0043887Y0120698D03*
X0057666Y0121879D03*
X0086288Y0102154D03*
X0086406Y0084477D03*
X0105304Y0096682D03*
X0105698Y0108099D03*
X0120658Y0111249D03*
X0126564Y0101406D03*
D18*
X0126013Y0101957D01*
X0115383Y0101957D01*
X0105146Y0101957D01*
X0102154Y0104950D01*
X0093572Y0104950D01*
X0089241Y0104950D01*
X0086367Y0102076D01*
X0096485Y0136839D02*
X0096485Y0144162D01*
X0100973Y0148650D01*
X0124595Y0148650D01*
X0128532Y0144713D01*
X0128532Y0132902D01*
X0131406Y0130028D01*
X0137666Y0130028D01*
D19*
X0057666Y0121879D02*
X0056485Y0120698D01*
X0043887Y0120698D01*
X0038769Y0104556D02*
X0031258Y0104556D01*
X0030022Y0105792D01*
X0029792Y0104950D02*
X0024989Y0104950D01*
X0022233Y0102194D01*
X0022233Y0077391D01*
D20*
X0084622Y0063792D03*
X0086022Y0074992D03*
X0093022Y0112792D03*
M02*
