G75*
%MOIN*%
%OFA0B0*%
%FSLAX25Y25*%
%IPPOS*%
%LPD*%
%AMOC8*
5,1,8,0,0,1.08239X$1,22.5*
%
%ADD10C,0.00000*%
%ADD11C,0.07800*%
%ADD12R,0.08274X0.05124*%
%ADD13R,0.05124X0.08274*%
%ADD14C,0.07800*%
%ADD15C,0.00500*%
%ADD16R,0.04337X0.04731*%
D10*
X0010658Y0015028D02*
X0010619Y0152587D01*
X0147942Y0152587D01*
X0147942Y0014871D01*
X0010658Y0015028D01*
D11*
X0019871Y0131486D02*
X0019871Y0138886D01*
X0029871Y0138886D02*
X0029871Y0131486D01*
X0039871Y0131486D02*
X0039871Y0138886D01*
X0049871Y0138886D02*
X0049871Y0131486D01*
X0134557Y0111918D02*
X0141957Y0111918D01*
X0141957Y0101918D02*
X0134557Y0101918D01*
X0134557Y0091918D02*
X0141957Y0091918D01*
X0141957Y0081918D02*
X0134557Y0081918D01*
D12*
X0093572Y0081328D03*
X0093572Y0089202D03*
X0093572Y0097076D03*
X0093572Y0104950D03*
X0093572Y0073454D03*
X0093572Y0065580D03*
X0093572Y0057706D03*
X0093572Y0049831D03*
X0029792Y0049831D03*
X0029792Y0057706D03*
X0029792Y0065580D03*
X0029792Y0073454D03*
X0029792Y0081328D03*
X0029792Y0089202D03*
X0029792Y0097076D03*
X0029792Y0104950D03*
D13*
X0042391Y0112824D03*
X0050265Y0112824D03*
X0058139Y0112824D03*
X0066013Y0112824D03*
X0073887Y0112824D03*
X0081761Y0112824D03*
D14*
X0083690Y0136800D03*
X0073690Y0136800D03*
X0063690Y0136800D03*
X0096485Y0136839D03*
X0106485Y0136839D03*
X0116485Y0136839D03*
X0137666Y0140028D03*
X0137666Y0130028D03*
D15*
X0138094Y0069566D02*
X0137717Y0069523D01*
X0137359Y0069396D01*
X0137038Y0069193D01*
X0136770Y0068924D01*
X0136569Y0068602D01*
X0136445Y0068243D01*
X0136404Y0067866D01*
X0136404Y0067826D01*
X0136443Y0067443D01*
X0136566Y0067078D01*
X0136767Y0066750D01*
X0137036Y0066474D01*
X0137360Y0066266D01*
X0137722Y0066134D01*
X0138104Y0066087D01*
X0138224Y0066076D01*
X0138601Y0066132D01*
X0138956Y0066270D01*
X0139271Y0066484D01*
X0139531Y0066763D01*
X0139722Y0067093D01*
X0139835Y0067457D01*
X0139864Y0067837D01*
X0139864Y0067816D01*
X0139823Y0068201D01*
X0139697Y0068568D01*
X0139493Y0068897D01*
X0139220Y0069173D01*
X0138893Y0069381D01*
X0138528Y0069511D01*
X0138144Y0069556D01*
X0138094Y0069566D01*
X0136975Y0069130D02*
X0139263Y0069130D01*
X0139657Y0068631D02*
X0136588Y0068631D01*
X0136433Y0068133D02*
X0139830Y0068133D01*
X0139848Y0067634D02*
X0136423Y0067634D01*
X0136546Y0067136D02*
X0139735Y0067136D01*
X0139413Y0066637D02*
X0136877Y0066637D01*
X0137709Y0066139D02*
X0138618Y0066139D01*
X0138094Y0051756D02*
X0137717Y0051712D01*
X0137359Y0051586D01*
X0137038Y0051383D01*
X0136770Y0051114D01*
X0136569Y0050792D01*
X0136445Y0050433D01*
X0136404Y0050056D01*
X0136404Y0050016D01*
X0136443Y0049633D01*
X0136566Y0049268D01*
X0136767Y0048939D01*
X0137036Y0048664D01*
X0137360Y0048455D01*
X0137722Y0048324D01*
X0138104Y0048276D01*
X0138224Y0048266D01*
X0138601Y0048322D01*
X0138956Y0048460D01*
X0139271Y0048674D01*
X0139531Y0048953D01*
X0139722Y0049283D01*
X0139835Y0049646D01*
X0139864Y0050026D01*
X0139864Y0050006D01*
X0139823Y0050391D01*
X0139697Y0050758D01*
X0139493Y0051087D01*
X0139220Y0051362D01*
X0138893Y0051570D01*
X0138528Y0051700D01*
X0138144Y0051746D01*
X0138094Y0051756D01*
X0137631Y0051682D02*
X0138580Y0051682D01*
X0139397Y0051183D02*
X0136840Y0051183D01*
X0136532Y0050685D02*
X0139722Y0050685D01*
X0139845Y0050186D02*
X0136418Y0050186D01*
X0136437Y0049688D02*
X0139838Y0049688D01*
X0139668Y0049189D02*
X0136614Y0049189D01*
X0137010Y0048691D02*
X0139287Y0048691D01*
X0137584Y0040849D02*
X0137199Y0040895D01*
X0137149Y0040905D01*
X0136772Y0040861D01*
X0136414Y0040735D01*
X0136093Y0040532D01*
X0135826Y0040263D01*
X0135625Y0039941D01*
X0135500Y0039582D01*
X0135459Y0039205D01*
X0135459Y0039165D01*
X0135498Y0038782D01*
X0135621Y0038417D01*
X0135822Y0038088D01*
X0136091Y0037813D01*
X0136415Y0037604D01*
X0136777Y0037473D01*
X0137159Y0037425D01*
X0137279Y0037415D01*
X0137656Y0037470D01*
X0138011Y0037609D01*
X0138326Y0037823D01*
X0138586Y0038102D01*
X0138777Y0038431D01*
X0138890Y0038795D01*
X0138919Y0039175D01*
X0138919Y0039155D01*
X0138878Y0039540D01*
X0138752Y0039906D01*
X0138548Y0040236D01*
X0138275Y0040511D01*
X0137949Y0040719D01*
X0137584Y0040849D01*
X0137956Y0040715D02*
X0136382Y0040715D01*
X0135797Y0040216D02*
X0138560Y0040216D01*
X0138817Y0039718D02*
X0135547Y0039718D01*
X0135461Y0039219D02*
X0138912Y0039219D01*
X0138867Y0038721D02*
X0135518Y0038721D01*
X0135740Y0038222D02*
X0138656Y0038222D01*
X0138180Y0037724D02*
X0136230Y0037724D01*
X0137149Y0023094D02*
X0136772Y0023051D01*
X0136414Y0022925D01*
X0136093Y0022722D01*
X0135826Y0022452D01*
X0135625Y0022130D01*
X0135500Y0021772D01*
X0135459Y0021394D01*
X0135459Y0021355D01*
X0135498Y0020972D01*
X0135621Y0020607D01*
X0135822Y0020278D01*
X0136091Y0020003D01*
X0136415Y0019794D01*
X0136777Y0019663D01*
X0137159Y0019615D01*
X0137279Y0019604D01*
X0137656Y0019660D01*
X0138011Y0019799D01*
X0138326Y0020013D01*
X0138586Y0020291D01*
X0138777Y0020621D01*
X0138890Y0020985D01*
X0138919Y0021365D01*
X0138919Y0021344D01*
X0138878Y0021730D01*
X0138752Y0022096D01*
X0138548Y0022425D01*
X0138275Y0022701D01*
X0137949Y0022909D01*
X0137584Y0023039D01*
X0137199Y0023085D01*
X0137149Y0023094D01*
X0136167Y0022768D02*
X0138170Y0022768D01*
X0138644Y0022270D02*
X0135712Y0022270D01*
X0135500Y0021771D02*
X0138864Y0021771D01*
X0138912Y0021273D02*
X0135467Y0021273D01*
X0135564Y0020774D02*
X0138824Y0020774D01*
X0138571Y0020276D02*
X0135824Y0020276D01*
X0136461Y0019777D02*
X0137956Y0019777D01*
X0113319Y0021335D02*
X0113278Y0021720D01*
X0113152Y0022086D01*
X0112948Y0022416D01*
X0112675Y0022691D01*
X0112349Y0022899D01*
X0111984Y0023029D01*
X0111599Y0023075D01*
X0111549Y0023085D01*
X0111172Y0023041D01*
X0110814Y0022915D01*
X0110493Y0022712D01*
X0110226Y0022443D01*
X0110025Y0022121D01*
X0109900Y0021762D01*
X0109859Y0021385D01*
X0109859Y0021345D01*
X0109898Y0020962D01*
X0110021Y0020597D01*
X0110222Y0020268D01*
X0110491Y0019993D01*
X0110815Y0019784D01*
X0111177Y0019653D01*
X0111559Y0019605D01*
X0111679Y0019594D01*
X0112056Y0019650D01*
X0112411Y0019789D01*
X0112726Y0020003D01*
X0112986Y0020282D01*
X0113177Y0020611D01*
X0113290Y0020975D01*
X0113319Y0021355D01*
X0113319Y0021335D01*
X0113313Y0021273D02*
X0109866Y0021273D01*
X0109904Y0021771D02*
X0113260Y0021771D01*
X0113038Y0022270D02*
X0110118Y0022270D01*
X0110582Y0022768D02*
X0112554Y0022768D01*
X0113227Y0020774D02*
X0109961Y0020774D01*
X0110218Y0020276D02*
X0112980Y0020276D01*
X0112381Y0019777D02*
X0110834Y0019777D01*
X0111659Y0037424D02*
X0112036Y0037480D01*
X0112391Y0037619D01*
X0112706Y0037833D01*
X0112966Y0038112D01*
X0113157Y0038441D01*
X0113270Y0038805D01*
X0113299Y0039185D01*
X0113299Y0039165D01*
X0113258Y0039550D01*
X0113132Y0039916D01*
X0112928Y0040246D01*
X0112655Y0040521D01*
X0112328Y0040729D01*
X0111963Y0040859D01*
X0111579Y0040905D01*
X0111529Y0040915D01*
X0111152Y0040871D01*
X0110794Y0040745D01*
X0110473Y0040542D01*
X0110205Y0040273D01*
X0110004Y0039951D01*
X0109880Y0039592D01*
X0109839Y0039215D01*
X0109839Y0039175D01*
X0109878Y0038792D01*
X0110001Y0038427D01*
X0110202Y0038098D01*
X0110471Y0037823D01*
X0110795Y0037614D01*
X0111157Y0037483D01*
X0111539Y0037435D01*
X0111659Y0037424D01*
X0112545Y0037724D02*
X0110625Y0037724D01*
X0110126Y0038222D02*
X0113030Y0038222D01*
X0113244Y0038721D02*
X0109902Y0038721D01*
X0109839Y0039219D02*
X0113293Y0039219D01*
X0113200Y0039718D02*
X0109924Y0039718D01*
X0110170Y0040216D02*
X0112946Y0040216D01*
X0112351Y0040715D02*
X0110747Y0040715D01*
X0112122Y0048314D02*
X0112504Y0048267D01*
X0112624Y0048256D01*
X0113001Y0048312D01*
X0113356Y0048450D01*
X0113671Y0048664D01*
X0113931Y0048943D01*
X0114122Y0049273D01*
X0114235Y0049637D01*
X0114264Y0050017D01*
X0114264Y0049996D01*
X0114223Y0050381D01*
X0114097Y0050748D01*
X0113893Y0051077D01*
X0113620Y0051353D01*
X0113293Y0051561D01*
X0112928Y0051691D01*
X0112544Y0051736D01*
X0112494Y0051746D01*
X0112117Y0051702D01*
X0111759Y0051576D01*
X0111438Y0051373D01*
X0111170Y0051104D01*
X0110969Y0050782D01*
X0110845Y0050423D01*
X0110804Y0050046D01*
X0110804Y0050006D01*
X0110843Y0049623D01*
X0110966Y0049258D01*
X0111167Y0048930D01*
X0111436Y0048654D01*
X0111760Y0048446D01*
X0112122Y0048314D01*
X0111400Y0048691D02*
X0113696Y0048691D01*
X0114073Y0049189D02*
X0111008Y0049189D01*
X0110836Y0049688D02*
X0114239Y0049688D01*
X0114243Y0050186D02*
X0110819Y0050186D01*
X0110936Y0050685D02*
X0114118Y0050685D01*
X0113787Y0051183D02*
X0111249Y0051183D01*
X0112059Y0051682D02*
X0112953Y0051682D01*
X0112604Y0066086D02*
X0112980Y0066142D01*
X0113335Y0066280D01*
X0113651Y0066494D01*
X0113911Y0066773D01*
X0114102Y0067103D01*
X0114215Y0067467D01*
X0114244Y0067846D01*
X0114244Y0067826D01*
X0114203Y0068211D01*
X0114077Y0068578D01*
X0113873Y0068907D01*
X0113600Y0069182D01*
X0113273Y0069391D01*
X0112908Y0069521D01*
X0112524Y0069566D01*
X0112474Y0069576D01*
X0112097Y0069532D01*
X0111739Y0069406D01*
X0111418Y0069203D01*
X0111150Y0068934D01*
X0110949Y0068612D01*
X0110825Y0068253D01*
X0110784Y0067876D01*
X0110784Y0067836D01*
X0110823Y0067453D01*
X0110946Y0067088D01*
X0111147Y0066760D01*
X0111416Y0066484D01*
X0111740Y0066275D01*
X0112102Y0066144D01*
X0112484Y0066096D01*
X0112604Y0066086D01*
X0112961Y0066139D02*
X0112144Y0066139D01*
X0111266Y0066637D02*
X0113784Y0066637D01*
X0114112Y0067136D02*
X0110930Y0067136D01*
X0110804Y0067634D02*
X0114227Y0067634D01*
X0114211Y0068133D02*
X0110812Y0068133D01*
X0110961Y0068631D02*
X0114043Y0068631D01*
X0113652Y0069130D02*
X0111345Y0069130D01*
D16*
X0112784Y0077194D03*
X0112784Y0083887D03*
X0104910Y0083887D03*
X0104910Y0077194D03*
X0115383Y0095265D03*
X0115383Y0101957D03*
X0108257Y0113729D03*
X0108257Y0120422D03*
X0098375Y0120737D03*
X0098375Y0114044D03*
M02*
