%
M48
M72
T01C0.0236
T02C0.0240
T03C0.0400
T04C0.0440
%
T01
X5019Y5023
X3798Y5928
X3798Y6952
X2223Y7739
X3759Y9274
X3759Y9865
X3877Y10456
X4389Y12070
X5767Y12188
X8629Y10215
X8641Y8448
X10530Y9668
X10570Y10810
X12066Y11125
X12656Y10141
X4034Y8558
T02
X8602Y7499
X8462Y6379
X9302Y11279
T03
X6369Y13680
X7369Y13680
X8369Y13680
X9649Y13684
X10649Y13684
X11649Y13684
X13767Y14003
X13767Y13003
X13810Y6783
X13810Y5003
X13716Y3916
X13716Y2136
X11156Y2136
X11156Y3916
X11250Y5003
X11250Y6783
T04
X1987Y13519
X2987Y13519
X3987Y13519
X4987Y13519
X13826Y11192
X13826Y10192
X13826Y9192
X13826Y8192
M30
